<?xml version="1.0" encoding="utf-8"?>
<!-- Generator: Adobe Illustrator 18.1.1, SVG Export Plug-In . SVG Version: 6.00 Build 0)  -->
<!DOCTYPE svg PUBLIC "-//W3C//DTD SVG 1.1//EN" "http://www.w3.org/Graphics/SVG/1.1/DTD/svg11.dtd">
<svg version="1.1" id="Layer_1" xmlns="http://www.w3.org/2000/svg" xmlns:xlink="http://www.w3.org/1999/xlink" x="0px" y="0px"
	 viewBox="0 0 170 170" enable-background="new 0 0 170 170" xml:space="preserve">
<g>
	<g>
		<circle fill="#FABC3D" cx="85" cy="85" r="85"/>
	</g>
	<g>
		<g>
			<path fill="#0484AB" d="M134.454,44.818v80.364c0,5.115-4.157,9.273-9.273,9.273H44.818c-5.116,0-9.273-4.157-9.273-9.273V44.818
				c0-5.116,4.157-9.273,9.273-9.273h80.364C130.297,35.545,134.454,39.702,134.454,44.818z"/>
		</g>
		<g>
			<path fill="#059BBF" d="M134.454,49.377v75.805c0,5.115-4.157,9.273-9.273,9.273H44.818c-5.116,0-9.273-4.157-9.273-9.273
				v-21.235L52.87,92.804l26.288,4.636l24.001-15.996l13.847-24.588L134.454,49.377z"/>
		</g>
		<g>
			<path fill="#21B2D1" d="M134.454,61.818v-3.091h-10.818v-6.182h-3.091v6.182h-7.728v3.091h7.728v9.273h-9.273v-4.636h-3.091
				v4.636h-1.546v3.091h1.546v9.273h-9.273v-0.001h-3.091v0.001h0v3.091h0v9.273h-9.273v-3.092h-3.091v3.092h-9.273v-1.547h-3.091
				v1.547h-9.273v-3.092h-3.091v3.092h-9.273v-1.547h-3.091v1.547h-3.43v3.091h3.43v9.273H35.545v3.091h10.817v9.273H35.545v3.091
				h10.817v10.817h3.091v-10.817h9.273v10.817h3.091v-10.817h9.273v10.817h3.091v-10.817h9.273v10.817h3.091v-10.817h9.273v10.817
				h3.091v-10.817h9.273v10.818h3.091v-10.818h9.273v10.818h3.091v-10.818h10.818v-3.091h-10.818v-9.273h10.818v-3.091h-10.818
				v-9.273h10.818v-3.091h-10.818v-9.273h10.818v-3.091h-10.818v-9.273h10.818v-3.091h-10.818v-9.273H134.454z M98.909,86.545h9.273
				v9.273h-9.273V86.545z M108.182,98.909v9.273h-9.273v-9.273H108.182z M95.818,98.909v9.273h-9.273v-9.273H95.818z M83.454,98.909
				v9.273h-9.273v-9.273H83.454z M71.091,98.909v9.273h-9.273v-9.273H71.091z M49.454,98.909h9.273v9.273h-9.273V98.909z
				 M49.454,120.545v-9.273h9.273v9.273H49.454z M61.818,120.545v-9.273h9.273v9.273H61.818z M74.182,120.545v-9.273h9.273v9.273
				H74.182z M86.545,120.545v-9.273h9.273v9.273H86.545z M98.909,120.545v-9.273h9.273v9.273H98.909z M120.546,120.545h-9.273
				v-9.273h9.273V120.545z M120.546,108.182h-9.273v-9.273h9.273V108.182z M120.546,95.818h-9.273v-9.273h9.273V95.818z
				 M120.546,83.454h-9.273v-9.273h9.273V83.454z"/>
		</g>
		<g>
			<path fill="#FFFFFF" d="M134.454,46.008l-16.469,7.049c-4.134-2.087-8.403,2.517-6.05,6.479l-9.142,16.271
				c-3.305-0.573-6.104,2.403-5.274,5.689l-15.93,10.624c-0.775-0.582-1.727-0.939-2.771-0.939c-1.73,0-3.222,0.959-4.018,2.364
				l-17.695-3.124c-1.05-6.329-10.499-4.288-9.063,1.821l-12.497,8.026v3.678l14.172-9.115c2.292,1.779,5.467,1.051,6.845-1.376
				l17.696,3.121c0.364,2.197,2.259,3.878,4.56,3.878c2.923,0,5.252-2.73,4.479-5.773l15.934-10.619
				c4.41,3.307,9.887-2.571,6.246-6.735l8.893-15.791c3.805,1.346,7.285-2.405,5.843-6.054l14.241-6.105V46.008z"/>
		</g>
		<g>
			<polygon fill="#FFFFFF" points="91.182,74.182 78.818,83.454 66.454,74.182 66.454,46.363 91.182,46.363 			"/>
		</g>
		<g>
			<g>
				<path fill="#F37A10" d="M78.872,52.781c0.68,0,1.219,0.54,1.219,1.219v0.328c1.266,0.188,2.391,0.563,3.399,1.125
					c0.445,0.258,0.844,0.703,0.844,1.407c0,0.89-0.703,1.57-1.594,1.57c-0.281,0-0.563-0.07-0.821-0.211
					c-0.657-0.352-1.312-0.633-1.945-0.797v3.563c3.563,0.961,5.087,2.415,5.087,5.04c0,2.625-2.016,4.313-4.969,4.641v1.242
					c0,0.68-0.54,1.219-1.219,1.219c-0.679,0-1.219-0.54-1.219-1.219v-1.266c-1.664-0.211-3.235-0.797-4.618-1.641
					c-0.492-0.304-0.797-0.774-0.797-1.406c0-0.915,0.703-1.594,1.617-1.594c0.304,0,0.633,0.118,0.914,0.305
					c0.985,0.633,1.923,1.078,3,1.313v-3.727c-3.375-0.915-5.039-2.203-5.039-4.992c0-2.579,1.969-4.313,4.922-4.618V54
					C77.654,53.321,78.193,52.781,78.872,52.781z M77.771,60.376v-3.165c-1.124,0.164-1.617,0.727-1.617,1.477
					C76.153,59.415,76.482,59.907,77.771,60.376z M79.974,64.478v3.258c1.102-0.164,1.665-0.68,1.665-1.524
					C81.639,65.439,81.24,64.924,79.974,64.478z"/>
			</g>
		</g>
	</g>
</g>
</svg>
