<?xml version="1.0" encoding="utf-8"?>
<!-- Generator: Adobe Illustrator 18.1.1, SVG Export Plug-In . SVG Version: 6.00 Build 0)  -->
<!DOCTYPE svg PUBLIC "-//W3C//DTD SVG 1.1//EN" "http://www.w3.org/Graphics/SVG/1.1/DTD/svg11.dtd">
<svg version="1.1" id="Layer_1" xmlns="http://www.w3.org/2000/svg" xmlns:xlink="http://www.w3.org/1999/xlink" x="0px" y="0px"
	 viewBox="0 0 225 225" enable-background="new 0 0 225 225" xml:space="preserve">
<g>
	<g>
		<circle fill="#FABC3D" cx="112.5" cy="112.5" r="112.5"/>
	</g>
	<g>
		<g>
			<g>
				<g>
					<g>
						<path fill="#F0F1F1" d="M47.327,169.868c0.423-0.945,26.163-58.486,31.733-70.937c-1.437,7.468,7.21,20.979,16.62,30.388
							c11.436,11.435,24.272,18.143,30.919,16.433c-11.524,5.158-70.575,31.522-71.466,31.92c-1.632,0.75-4.095-0.034-5.923-1.882
							C47.362,173.964,46.578,171.502,47.327,169.868z"/>
					</g>
				</g>
			</g>
		</g>
		<g>
			<g>
				<g>
					<path fill="#FFFFFF" d="M47.327,169.868c0.423-0.945,26.163-58.486,31.733-70.937c-1.435,7.461,7.194,20.953,16.593,30.362
						l-46.47,46.47C47.357,173.939,46.582,171.493,47.327,169.868z"/>
				</g>
			</g>
		</g>
		<g>
			<g>
				<g>
					<g>
						<circle fill="#DF2C2C" cx="94.091" cy="75.682" r="4.091"/>
					</g>
				</g>
			</g>
		</g>
		<g>
			<g>
				<g>
					<g>
						<circle fill="#F37A10" cx="126.818" cy="83.864" r="4.091"/>
					</g>
				</g>
			</g>
		</g>
		<g>
			<g>
				<g>
					<g>
						<circle fill="#059BBF" cx="165.682" cy="100.227" r="4.091"/>
					</g>
				</g>
			</g>
		</g>
		<g>
			<g>
				<g>
					<g>
						<circle fill="#FA5655" cx="167.727" cy="145.227" r="4.091"/>
					</g>
				</g>
			</g>
		</g>
		<g>
			<g>
				<g>
					<g>
						<circle fill="#12B2A0" cx="120.682" cy="55.227" r="4.091"/>
					</g>
				</g>
			</g>
		</g>
		<g>
			<g>
				<g>
					<g>
						<polygon fill="#FA5655" points="149.067,54.516 140.982,58.635 134.566,52.219 135.986,61.181 127.901,65.301 136.863,66.72 
							138.283,75.682 142.402,67.597 151.364,69.017 144.948,62.601 						"/>
					</g>
				</g>
			</g>
		</g>
		<g>
			<g>
				<g>
					<g>
						<polygon fill="#F37A10" points="147.344,122.727 145.396,128.724 139.091,128.724 144.192,132.111 142.243,137.949 
							147.344,134.163 152.445,137.83 150.497,132.132 155.598,128.724 149.293,128.724 						"/>
					</g>
				</g>
			</g>
		</g>
		<g>
			<g>
				<g>
					<g>
						<path fill="#DF2C2C" d="M132.955,102.273c20.375,0,24.658-12.953,28.099-23.36c2.864-8.662,5.127-15.503,14.856-15.503
							c1.13,0,2.045-0.916,2.045-2.045c0-1.13-0.916-2.045-2.045-2.045c-12.685,0-15.763,9.308-18.739,18.31
							c-3.496,10.57-6.797,20.554-24.215,20.554c-1.13,0-2.045,0.916-2.045,2.045C130.909,101.357,131.825,102.273,132.955,102.273z
							"/>
					</g>
				</g>
			</g>
		</g>
		<g>
			<g>
				<g>
					<g>
						<path fill="#059BBF" d="M105.596,89.552c14.335-11.468,9.243-19.146,4.32-26.572c-2.752-4.15-5.598-8.442-5.598-13.889
							c0-1.129-0.916-2.045-2.045-2.045s-2.045,0.916-2.045,2.045c0,6.681,3.336,11.711,6.279,16.15
							c4.786,7.217,7.948,11.986-3.466,21.117c-0.882,0.706-1.025,1.992-0.319,2.875C103.432,90.12,104.719,90.254,105.596,89.552z"
							/>
					</g>
				</g>
			</g>
		</g>
		<g>
			<g>
				<g>
					<g>
						<path fill="#12B2A0" d="M175.909,126.818c1.13,0,2.045-0.916,2.045-2.045c0-1.129-0.916-2.045-2.045-2.045
							c-5.846,0-10.512-3.111-15.024-6.119c-7.286-4.858-14.821-9.884-25.286,0.582c-0.799,0.799-0.799,2.094,0,2.892
							c0.798,0.799,2.094,0.799,2.892,0c8.093-8.091,12.879-4.902,20.124-0.071C163.401,123.202,168.824,126.818,175.909,126.818z"
							/>
					</g>
				</g>
			</g>
		</g>
		<g>
			<g>
				<g>
					<g>
						<path fill="#DF2C2C" d="M80.224,166.401c-18.648,8.406,3.804-1.669-14.862,6.696c-4.544-4.716-8.849-9.768-12.726-15.096
							c2.172-4.857,4.819-10.775,7.6-16.991C65.606,150.485,72.433,159.103,80.224,166.401z"/>
					</g>
				</g>
			</g>
		</g>
		<g>
			<g>
				<g>
					<path fill="#FA5655" d="M69.818,155.127l-10.874,10.875c-2.198-2.59-4.312-5.257-6.309-8.002
						c2.172-4.857,4.82-10.775,7.6-16.991C63.05,145.976,66.274,150.699,69.818,155.127z"/>
				</g>
			</g>
		</g>
		<g>
			<g>
				<g>
					<path fill="#E2E4E5" d="M95.68,129.32c13.255,13.254,28.41,20.184,33.603,14.983c5.153-5.152-1.57-20.19-14.988-33.626
						c-13.437-13.417-28.47-20.116-33.626-14.987C74.672,101.681,84.678,118.318,95.68,129.32z"/>
				</g>
			</g>
		</g>
		<g>
			<g>
				<path fill="#DF2C2C" d="M92.704,136.141c-7.31-9.894-11.735-20.343-12.669-29.679c-0.996-2.843-1.379-5.419-0.975-7.526
					l-11.477,25.697c2.876,6.212,6.601,12.454,11.065,18.501c4.648,6.288,9.879,12.052,15.453,17.13l15.55-6.947
					C103.486,148.715,97.641,142.852,92.704,136.141z"/>
			</g>
		</g>
		<g>
			<g>
				<g>
					<path fill="#F0F1F1" d="M114.282,110.664l-18.629,18.628c-10.991-11.002-20.977-27.616-14.985-33.604
						C85.823,90.562,100.849,97.255,114.282,110.664z"/>
				</g>
			</g>
		</g>
		<g>
			<g>
				<path fill="#FA5655" d="M79.06,98.936l-11.477,25.697c2.876,6.212,6.601,12.454,11.065,18.501
					c0.447,0.606,0.926,1.183,1.384,1.779l11.071-11.071c-6.345-9.21-10.214-18.778-11.077-27.399
					C79.037,103.607,78.656,101.038,79.06,98.936z"/>
			</g>
		</g>
	</g>
</g>
</svg>
