<?xml version="1.0" encoding="utf-8"?>
<!-- Generator: Adobe Illustrator 18.1.1, SVG Export Plug-In . SVG Version: 6.00 Build 0)  -->
<!DOCTYPE svg PUBLIC "-//W3C//DTD SVG 1.1//EN" "http://www.w3.org/Graphics/SVG/1.1/DTD/svg11.dtd">
<svg version="1.1" id="Layer_1" xmlns="http://www.w3.org/2000/svg" xmlns:xlink="http://www.w3.org/1999/xlink" x="0px" y="0px"
	 viewBox="0 0 170 170" enable-background="new 0 0 170 170" xml:space="preserve">
<g>
	<g>
		<circle fill="#FABC3D" cx="85" cy="85" r="85"/>
	</g>
	<g>
		<g>
			<g>
				<g>
					<path fill="#0484AB" d="M103.53,41.774l-6.167-6.229H72.636l-6.167,6.229l-29.848,9.511c-0.641,0.204-1.076,0.8-1.076,1.473
						v28.129c0,0.45,0.196,0.878,0.537,1.171c0.341,0.293,0.793,0.424,1.238,0.357L51,80.364v51c0,1.707,1.384,3.091,3.091,3.091
						h61.818c1.707,0,3.091-1.384,3.091-3.091v-51l13.68,2.052c0.445,0.067,0.897-0.064,1.238-0.357
						c0.341-0.294,0.537-0.721,0.537-1.171V52.758c0-0.673-0.435-1.268-1.076-1.473L103.53,41.774z"/>
				</g>
			</g>
		</g>
		<g>
			<g>
				<g>
					<path fill="#059BBF" d="M85,35.545h-1.545H72.636l-6.167,6.229l-29.848,9.511c-0.641,0.204-1.076,0.8-1.076,1.473v28.129
						c0,0.45,0.196,0.878,0.537,1.171c0.341,0.293,0.793,0.424,1.238,0.357L51,80.364v51c0,1.707,1.384,3.091,3.091,3.091H85V35.545
						z"/>
				</g>
			</g>
		</g>
		<g>
			<g>
				<g>
					<path fill="#40C9E7" d="M128.273,49.658l5.106,1.627c0.641,0.204,1.076,0.8,1.076,1.473v28.129c0,0.45-0.196,0.878-0.537,1.171
						c-0.341,0.294-0.793,0.424-1.238,0.357l-4.407-0.661V49.658z"/>
				</g>
			</g>
		</g>
		<g>
			<g>
				<g>
					<polygon fill="#40C9E7" points="75.727,80.364 66.454,83.455 57.182,80.364 57.182,63.364 75.727,63.364 					"/>
				</g>
			</g>
		</g>
		<g>
			<g>
				<g>
					<rect x="57.182" y="63.364" fill="#21B2D1" width="18.545" height="6.182"/>
				</g>
			</g>
		</g>
		<g>
			<g>
				<g>
					<polygon fill="#40C9E7" points="111.273,80.364 102,83.455 92.727,80.364 92.727,63.364 111.273,63.364 					"/>
				</g>
			</g>
		</g>
		<g>
			<g>
				<g>
					<rect x="92.727" y="63.364" fill="#21B2D1" width="18.545" height="6.182"/>
				</g>
			</g>
		</g>
		<g>
			<g>
				<g>
					<path fill="#40C9E7" d="M41.727,49.658l-5.106,1.627c-0.641,0.204-1.076,0.8-1.076,1.473v28.129
						c0,0.45,0.196,0.878,0.537,1.171c0.341,0.294,0.793,0.424,1.238,0.357l4.407-0.661V49.658z"/>
				</g>
			</g>
		</g>
		<g>
			<g>
				<g>
					<path fill="#0484AB" d="M85,35.545H72.636c0,6.359,3.091,12.364,12.364,12.364s12.364-6.005,12.364-12.364H85z"/>
				</g>
			</g>
		</g>
		<g>
			<g>
				<g>
					<path fill="#6FDAF1" d="M103.545,41.727l-6.182-6.182c0,6.359-3.091,12.364-12.364,12.364s-12.364-6.005-12.364-12.364
						l-6.182,6.182l0.015,0.047l-0.015,13.862L85,49.455l18.545,6.182l-0.015-13.862L103.545,41.727z"/>
				</g>
			</g>
		</g>
	</g>
</g>
</svg>
