<?xml version="1.0" encoding="utf-8"?>
<!-- Generator: Adobe Illustrator 18.1.1, SVG Export Plug-In . SVG Version: 6.00 Build 0)  -->
<!DOCTYPE svg PUBLIC "-//W3C//DTD SVG 1.1//EN" "http://www.w3.org/Graphics/SVG/1.1/DTD/svg11.dtd">
<svg version="1.1" id="Layer_1" xmlns="http://www.w3.org/2000/svg" xmlns:xlink="http://www.w3.org/1999/xlink" x="0px" y="0px"
	 viewBox="0 0 225 225" enable-background="new 0 0 225 225" xml:space="preserve">
<g>
	<circle fill="#F56462" cx="112.5" cy="112.5" r="112.5"/>
	<g>
		<path fill="#231F20" d="M100.741,99.896L61.995,63.832c-1.979-1.839-4.562-2.63-7.054-2.385c-2.119,0.208-4.173,1.167-5.74,2.846
			C45.8,67.953,46,73.681,49.658,77.087l46.419,43.199c1.919,1.795,4.512,2.686,7.153,2.369c2.613-0.285,4.973-1.69,6.471-3.855
			l10.655-15.458l24.794,24.729l-18.982,19.833l52.056-0.889l-0.89-52.574l-19.669,20.544l-32.207-32.126
			c-1.895-1.889-4.541-2.846-7.215-2.598c-2.732,0.239-5.101,1.667-6.623,3.877L100.741,99.896z"/>
		<polygon fill="#25B7D3" points="46.777,163.597 74.998,163.597 74.998,110.275 46.777,84.011 		"/>
		<path fill="#FABC3D" d="M102.177,129.748c-4.047,0-7.92-1.536-10.903-4.328L78.131,113.19v50.407h28.222v-34.413
			c-0.772,0.204-1.556,0.373-2.361,0.46C103.441,129.711,102.806,129.748,102.177,129.748z"/>
		<path fill="#FFF100" d="M119.047,145.173l16.261-16.989l-13.947-13.911l-5.87,8.517c-0.761,1.099-1.657,2.073-2.641,2.937v20.894
			v5.027v11.949h28.222v-8.917C141.072,154.68,112.5,157.9,119.047,145.173z"/>
	</g>
</g>
</svg>
