<?xml version="1.0" encoding="utf-8"?>
<!-- Generator: Adobe Illustrator 18.1.1, SVG Export Plug-In . SVG Version: 6.00 Build 0)  -->
<!DOCTYPE svg PUBLIC "-//W3C//DTD SVG 1.1//EN" "http://www.w3.org/Graphics/SVG/1.1/DTD/svg11.dtd">
<svg version="1.1" id="Layer_1" xmlns="http://www.w3.org/2000/svg" xmlns:xlink="http://www.w3.org/1999/xlink" x="0px" y="0px"
	 viewBox="0 0 170 170" enable-background="new 0 0 170 170" xml:space="preserve">
<g>
	<g>
		<circle fill="#FABC3D" cx="85" cy="85" r="85"/>
	</g>
	<g>
		<g>
			<g>
				<g>
					<path fill="#FBC8C8" d="M57.182,122.091c0,0,5.839-16.058-3.764-26.892c-0.524-0.591-0.519-1.484,0.015-2.067
						c3.315-3.624,9.201-3.546,17.658,11.959c2.208,4.048,6.814,3.831,10.818,1.545c7.616-4.347,18.607-18.197,30.136-14.824
						c0.524,0.153,0.928,0.572,1.063,1.101c0.135,0.529-0.02,1.089-0.406,1.475l-40.066,40.066L57.182,122.091z"/>
				</g>
			</g>
		</g>
		<g>
			<g>
				<g>
					<path fill="#F0F1F1" d="M134.454,89.636c0,0.854-0.692,1.545-1.545,1.545H37.091c-0.854,0-1.545-0.692-1.545-1.545v-3.091
						c0-0.854,0.692-1.545,1.545-1.545h95.818c0.854,0,1.545,0.692,1.545,1.545V89.636z"/>
				</g>
			</g>
		</g>
		<g>
			<g>
				<g>
					<path fill="#FFFFFF" d="M85,41.727c1.61,0,3.144,0.071,4.636,0.178v-4.814c0-0.853-0.692-1.545-1.545-1.545h-6.182
						c-0.853,0-1.545,0.692-1.545,1.545v4.814C81.856,41.798,83.39,41.727,85,41.727z"/>
				</g>
			</g>
		</g>
		<g>
			<g>
				<g>
					<path fill="#E2E4E5" d="M41.727,85c0,0-1.545-43.273,43.273-43.273S128.273,85,128.273,85H41.727z"/>
				</g>
			</g>
		</g>
		<g>
			<g>
				<g>
					<polygon fill="#3E3E3F" points="57.182,122.091 41.727,134.455 72.636,134.455 					"/>
				</g>
			</g>
		</g>
		<g>
			<g>
				<g>
					<path fill="#FFFFFF" d="M85,41.727C40.182,41.727,41.727,85,41.727,85H85V41.727z"/>
				</g>
			</g>
		</g>
		<g>
			<g>
				<g>
					<path fill="#FDE5E5" d="M57.182,122.091c0,0,5.839-16.058-3.764-26.892c-0.524-0.591-0.519-1.484,0.015-2.067
						c3.315-3.624,9.201-3.546,17.658,11.959c2.208,4.048,6.814,3.831,10.818,1.545c7.616-4.347,18.607-18.197,30.136-14.824
						c0.524,0.153,0.928,0.572,1.063,1.101c0.135,0.529-0.02,1.089-0.406,1.475l-40.066,40.066L57.182,122.091z"/>
				</g>
			</g>
		</g>
		<g>
			<g>
				<g>
					<path fill="#FDEDED" d="M112.703,94.388c0.386-0.386,0.541-0.946,0.406-1.475s-0.539-0.948-1.063-1.101
						c-11.53-3.372-22.52,10.477-30.136,14.824c-4.004,2.286-8.61,2.502-10.818-1.545c-8.457-15.505-14.344-15.583-17.658-11.959
						c-0.533,0.583-0.539,1.476-0.015,2.067c9.603,10.834,3.764,26.892,3.764,26.892l4.214,3.372l47.871-27.638L112.703,94.388z"/>
				</g>
			</g>
		</g>
	</g>
</g>
</svg>
