<?xml version="1.0" encoding="utf-8"?>
<!-- Generator: Adobe Illustrator 18.1.1, SVG Export Plug-In . SVG Version: 6.00 Build 0)  -->
<!DOCTYPE svg PUBLIC "-//W3C//DTD SVG 1.1//EN" "http://www.w3.org/Graphics/SVG/1.1/DTD/svg11.dtd">
<svg version="1.1" id="Layer_1" xmlns="http://www.w3.org/2000/svg" xmlns:xlink="http://www.w3.org/1999/xlink" x="0px" y="0px"
	 viewBox="0 0 225 225" enable-background="new 0 0 225 225" xml:space="preserve">
<g>
	<g>
		<g>
			<circle fill="#FABC3D" cx="112.5" cy="112.5" r="112.5"/>
		</g>
	</g>
	<g>
		<g>
			<g>
				<g>
					<polygon fill="#F0F1F1" points="112.5,177.955 87.955,139.085 137.045,139.085 					"/>
				</g>
			</g>
		</g>
		<g>
			<g>
				<g>
					<path fill="#F7B4B4" d="M120.681,139.154h-8.182h-8.182l-12.272-7.675v6.583c0,0,0,15.341,20.455,15.341
						s20.455-15.341,20.455-15.341v-6.584L120.681,139.154z"/>
				</g>
			</g>
		</g>
		<g>
			<g>
				<path fill="#FBC8C8" d="M147.273,96.591c0-2.272-2.045-4.545-4.091-4.545s-2.045,2.273-2.045,2.273v-2.273
					c-0.037-18.409-2.095-30.682-28.636-30.682S83.901,73.636,83.864,92.046v16.358l8.182,20.455l10.443,8.173
					c1.163,1.307,2.831,2.054,4.581,2.054h5.43h5.43c1.751,0,3.418-0.747,4.582-2.054l10.442-8.173l6.559-16.398
					C145.313,112.042,147.273,103.246,147.273,96.591z"/>
			</g>
		</g>
		<g>
			<g>
				<path fill="#FBD7D7" d="M83.864,92.046v2.273c0,0,0-2.273-2.045-2.273c-2.045,0-4.091,2.273-4.091,4.545
					c0,6.655,1.96,15.451,7.759,15.869l6.559,16.398l10.443,8.173c1.163,1.307,2.831,2.054,4.581,2.054h5.43V61.364
					C85.959,61.364,83.901,73.636,83.864,92.046z"/>
			</g>
		</g>
		<g>
			<g>
				<g>
					<polygon fill="#FBC8C8" points="98.181,122.79 98.204,122.721 96.1,122.721 96.135,122.79 					"/>
				</g>
			</g>
			<g>
				<g>
					<path fill="#FBC8C8" d="M112.499,139.154h-8.182l-12.272-7.675v6.583c0,0,0,15.341,20.455,15.341v-14.249H112.499z"/>
				</g>
			</g>
		</g>
		<g>
			<g>
				<path fill="#692E19" d="M138.695,70.106c0.201-0.854,0.299-1.718,0.299-2.581c0-5.813-1.858-9.783-26.495-10.17v-0.049
					c-1.295-0.02-2.635-0.033-4.059-0.033c-25.591,0-26.678,16.324-26.62,19.798c0.007,0.414,0.029,0.658,0.029,0.658
					s0,10.268,0,14.35c0,0.009,0,0.02,0,0.029c0,0,2.045,4.091,4.091,8.182v14.318l2.014,14.312l16.364,10.233h8.182l0,0h8.182
					l16.364-10.233l2.013-14.312V100.29h0.064l4.091-8.182v-10.29C143.213,77.774,141.699,73.749,138.695,70.106z M128.863,122.79
					h-2.045l-4.091-12.273h-10.227l0,0h-10.227l-4.091,12.273h-2.045l-6.136-12.273V77.059c6.83,4.595,13.934,4.852,22.5,4.816
					v-0.006c5.326-0.025,16.142,0.064,22.5-5.7v34.348L128.863,122.79z"/>
			</g>
		</g>
		<g>
			<g>
				<path fill="#84462D" d="M112.5,81.875V57.306c-1.295-0.02-2.635-0.033-4.059-0.033c-28.636,0-26.591,20.455-26.591,20.455
					s0,10.29,0,14.381c0,0,2.045,4.091,4.091,8.182v14.318l2.014,14.312l16.364,10.233h8.182v-28.636h-10.227l-4.091,12.273h-2.045
					L90,110.518V77.042C94.478,80.053,98.051,81.931,112.5,81.875z"/>
			</g>
		</g>
		<g>
			<g>
				<g>
					<path fill="#3E3E3F" d="M106.364,96.13c0-2.259-1.832-4.091-4.091-4.091l-0.013,0.001c0.002,0.043,0.013,0.084,0.013,0.127
						c0,2.255-1.825,4.083-4.078,4.09c0.068,2.199,1.862,3.964,4.078,3.964C104.532,100.221,106.364,98.39,106.364,96.13z"/>
				</g>
			</g>
		</g>
		<g>
			<g>
				<g>
					<path fill="#3E3E3F" d="M126.805,96.13c0-2.259-1.832-4.091-4.091-4.091c0,0-0.008,0.001-0.013,0.001
						c0.002,0.043,0.013,0.084,0.013,0.127c0,2.255-1.825,4.083-4.078,4.09c0.068,2.199,1.862,3.964,4.078,3.964
						C124.973,100.221,126.805,98.39,126.805,96.13z"/>
				</g>
			</g>
		</g>
		<g>
			<g>
				<g>
					<polygon fill="#FFFFFF" points="87.955,139.085 92.045,137.039 112.469,147.228 100.227,159.539 					"/>
				</g>
			</g>
		</g>
		<g>
			<g>
				<g>
					<polygon fill="#FFFFFF" points="137.045,139.085 132.955,137.039 112.531,147.228 124.773,159.539 					"/>
				</g>
			</g>
		</g>
		<g>
			<g>
				<g>
					<polygon fill="#099686" points="120.682,177.955 114.956,157.092 118.635,153.413 112.462,147.228 106.33,153.36 
						110.047,157.078 104.318,177.955 					"/>
				</g>
			</g>
		</g>
		<g>
			<g>
				<g>
					<polygon fill="#12B2A0" points="112.5,177.955 112.5,147.266 112.462,147.228 106.33,153.36 110.047,157.078 104.318,177.955 
											"/>
				</g>
			</g>
		</g>
		<g>
			<g>
				<g>
					<path fill="#3E3E3F" d="M47.045,177.955l8.182-22.5c1.258-2.727,3.473-4.897,6.224-6.101l26.503-10.263l24.545,38.864H47.045z"
						/>
				</g>
			</g>
		</g>
		<g>
			<g>
				<g>
					<path fill="#3E3E3F" d="M177.955,177.955l-8.182-22.5c-1.258-2.727-3.473-4.897-6.224-6.101l-26.503-10.263L112.5,177.955
						H177.955z"/>
				</g>
			</g>
		</g>
		<g>
			<g>
				<g>
					<rect x="135" y="163.63" fill="#FFFFFF" width="20.455" height="4.091"/>
				</g>
			</g>
		</g>
		<g>
			<g>
				<g>
					<path fill="#FBC8C8" d="M104.318,116.585h16.364c0,0,0,8.188-8.182,8.188S104.318,116.585,104.318,116.585z"/>
				</g>
			</g>
		</g>
	</g>
</g>
</svg>
