<?xml version="1.0" encoding="utf-8"?>
<!-- Generator: Adobe Illustrator 18.1.1, SVG Export Plug-In . SVG Version: 6.00 Build 0)  -->
<!DOCTYPE svg PUBLIC "-//W3C//DTD SVG 1.1//EN" "http://www.w3.org/Graphics/SVG/1.1/DTD/svg11.dtd">
<svg version="1.1" id="Layer_1" xmlns="http://www.w3.org/2000/svg" xmlns:xlink="http://www.w3.org/1999/xlink" x="0px" y="0px"
	 viewBox="0 0 170 170" enable-background="new 0 0 170 170" xml:space="preserve">
<g>
	<circle fill="#FABC3D" cx="85" cy="85" r="85"/>
	<path fill="#262626" d="M117.896,43.669H52.099c-4.658,0-8.43,3.772-8.43,8.433v65.796c0,4.655,3.773,8.432,8.43,8.432h65.797
		c4.658,0,8.43-3.778,8.436-8.432V52.102C126.326,47.442,122.553,43.669,117.896,43.669z M122.001,118.848
		c0,1.789-1.466,3.251-3.253,3.251H51.107c-1.792,0-3.253-1.462-3.253-3.251V51.206c0-1.789,1.46-3.253,3.253-3.253h67.641
		c1.787,0,3.253,1.464,3.253,3.253V118.848z"/>
	<path fill="#40C9E7" d="M80.354,87.225H53.469c-1.337,0-2.419,1.085-2.419,2.422v26.881c0,1.343,1.082,2.422,2.419,2.422h26.885
		c1.335,0,2.418-1.079,2.418-2.422V89.647C82.772,88.31,81.689,87.225,80.354,87.225z"/>
	<path fill="#FFFFFF" d="M66.56,92.507c1.664,0,3.016,1.351,3.016,3.014c0,1.668-1.351,3.014-3.016,3.014
		c-1.667,0-3.013-1.346-3.013-3.014C63.547,93.858,64.894,92.507,66.56,92.507z"/>
	<path fill="#FFFFFF" d="M66.56,113.151c-1.667,0-3.013-1.348-3.013-3.016c0-1.661,1.346-3.011,3.013-3.011
		c1.664,0,3.016,1.35,3.016,3.011C69.576,111.803,68.224,113.151,66.56,113.151z"/>
	<path fill="#FFFFFF" d="M77.443,104.468c0,0.665-0.538,1.203-1.201,1.203h-0.009h-0.851H58.037h-0.862
		c-0.661,0-1.201-0.538-1.201-1.203v-1.805v-1.938c0-0.667,0.54-1.205,1.201-1.205h0.862h17.346h0.851h0.009
		c0.663,0,1.201,0.538,1.201,1.205V104.468z"/>
	<path fill="#FFFFFF" d="M80.354,51.05H53.469c-1.337,0-2.419,1.085-2.419,2.419v26.887c0,1.337,1.082,2.422,2.419,2.422h26.885
		c1.335,0,2.418-1.084,2.418-2.422V53.469C82.772,52.135,81.689,51.05,80.354,51.05z"/>
	<path fill="#F56462" d="M77.303,68.667c0,0.662-0.538,1.206-1.201,1.206h-0.01h-0.85h-5.604v5.301v1.152
		c0,0.661-0.537,1.202-1.202,1.202h-3.744c-0.664,0-1.205-0.541-1.205-1.202v-1.152v-5.301h-5.594h-0.86
		c-0.663,0-1.202-0.543-1.202-1.206v-3.746c0-0.662,0.54-1.203,1.202-1.203h0.86h5.594V58.42v-1.157c0-0.662,0.541-1.2,1.205-1.2
		h3.744c0.665,0,1.202,0.538,1.202,1.2v1.157v5.298h5.604h0.85h0.01c0.663,0,1.201,0.541,1.201,1.203V68.667z"/>
	<path fill="#FFFFFF" d="M116.528,87.225H89.644c-1.338,0-2.421,1.085-2.421,2.422v26.881c0,1.343,1.083,2.422,2.421,2.422h26.884
		c1.336,0,2.419-1.079,2.419-2.422V89.647C118.947,88.31,117.864,87.225,116.528,87.225z"/>
	<path fill="#F56462" d="M112.781,110.363l-2.65,2.648c-0.469,0.468-1.23,0.468-1.7,0l-0.001-0.005h-0.003l-4.563-4.563
		l-4.564,4.563c-0.471,0.471-1.233,0.471-1.7,0l-2.65-2.648c-0.472-0.471-0.472-1.232,0-1.701l0.927-0.931l3.632-3.632l-3.951-3.956
		l-0.608-0.611c-0.472-0.468-0.472-1.23,0-1.698l2.646-2.653c0.471-0.468,1.233-0.468,1.704,0l4.562,4.566l2.773-2.774l1.792-1.792
		c0.467-0.468,1.23-0.468,1.699,0l2.651,2.653c0.467,0.468,0.467,1.227,0,1.698l-1.789,1.792l-0.003-0.003l-2.774,2.778l3.964,3.96
		v-0.003l0.606,0.611C113.25,109.131,113.25,109.893,112.781,110.363z"/>
	<path fill="#40C9E7" d="M116.528,51.05H89.644c-1.338,0-2.421,1.085-2.421,2.419v26.887c0,1.337,1.083,2.422,2.421,2.422h26.884
		c1.336,0,2.419-1.084,2.419-2.422V53.469C118.947,52.135,117.864,51.05,116.528,51.05z"/>
	<path fill="#FFFFFF" d="M113.807,68.667c0,0.662-0.537,1.206-1.2,1.206h-0.01h-0.85H94.4h-0.86c-0.667,0-1.201-0.543-1.201-1.206
		v-1.809v-1.937c0-0.662,0.534-1.203,1.201-1.203h0.86h17.347h0.85h0.01c0.663,0,1.2,0.541,1.2,1.203V68.667z"/>
</g>
</svg>
