<?xml version="1.0" encoding="utf-8"?>
<!-- Generator: Adobe Illustrator 18.1.1, SVG Export Plug-In . SVG Version: 6.00 Build 0)  -->
<!DOCTYPE svg PUBLIC "-//W3C//DTD SVG 1.1//EN" "http://www.w3.org/Graphics/SVG/1.1/DTD/svg11.dtd">
<svg version="1.1" id="Layer_1" xmlns="http://www.w3.org/2000/svg" xmlns:xlink="http://www.w3.org/1999/xlink" x="0px" y="0px"
	 viewBox="0 0 170 170" enable-background="new 0 0 170 170" xml:space="preserve">
<g>
	<g>
		<circle fill="#FABC3D" cx="85" cy="85" r="85"/>
	</g>
	<g>
		<g>
			<path fill="#B6BCBD" d="M134.454,61.818v55.636c0,1.87-2.766,4.636-6.182,4.636H41.727c-3.415,0-6.182-2.766-6.182-4.636V61.818
				c0-4.961,2.766-7.727,6.182-7.727h86.545C131.688,54.091,134.454,56.857,134.454,61.818z"/>
		</g>
		<g>
			<path fill="#F0F1F1" d="M134.454,60.273v13.909H35.545V60.273c0-3.415,2.766-6.182,6.182-6.182h86.545
				C131.688,54.091,134.454,56.857,134.454,60.273z"/>
		</g>
		<g>
			<rect x="75.727" y="74.182" fill="#E2E4E5" width="18.545" height="47.909"/>
		</g>
		<g>
			<g>
				<path fill="#FFFFFF" d="M108.182,69.545c-2.557,0-4.636-2.08-4.636-4.636s2.08-4.636,4.636-4.636
					c2.557,0,4.636,2.08,4.636,4.636S110.738,69.545,108.182,69.545z"/>
			</g>
			<g>
				<path fill="#B6BCBD" d="M108.182,61.818c1.707,0,3.091,1.384,3.091,3.091S109.889,68,108.182,68s-3.091-1.384-3.091-3.091
					S106.475,61.818,108.182,61.818 M108.182,58.727c-3.409,0-6.182,2.773-6.182,6.182c0,3.409,2.773,6.182,6.182,6.182
					s6.182-2.773,6.182-6.182C114.363,61.5,111.59,58.727,108.182,58.727L108.182,58.727z"/>
			</g>
		</g>
		<g>
			<g>
				<path fill="#FFFFFF" d="M122.091,69.545c-2.557,0-4.636-2.08-4.636-4.636s2.08-4.636,4.636-4.636
					c2.557,0,4.636,2.08,4.636,4.636S124.647,69.545,122.091,69.545z"/>
			</g>
			<g>
				<path fill="#B6BCBD" d="M122.091,61.818c1.707,0,3.091,1.384,3.091,3.091S123.798,68,122.091,68S119,66.616,119,64.909
					S120.384,61.818,122.091,61.818 M122.091,58.727c-3.409,0-6.182,2.773-6.182,6.182c0,3.409,2.773,6.182,6.182,6.182
					c3.409,0,6.182-2.773,6.182-6.182C128.273,61.5,125.499,58.727,122.091,58.727L122.091,58.727z"/>
			</g>
		</g>
		<g>
			<path fill="#CFD3D4" d="M63.363,41.727h-1.545c-0.854,0-1.545,0.692-1.545,1.545v10.818h3.091V41.727z"/>
		</g>
		<g>
			<path fill="#CFD3D4" d="M109.727,43.273c0-0.854-0.692-1.545-1.545-1.545h-1.545v12.364h3.091V43.273z"/>
		</g>
		<g>
			<rect x="63.363" y="41.727" fill="#3E3E3F" width="43.273" height="6.182"/>
		</g>
		<g>
			<circle fill="#5B5C5F" cx="85" cy="89.636" r="3.091"/>
		</g>
		<g>
			<circle fill="#5B5C5F" cx="85" cy="102" r="3.091"/>
		</g>
		<g>
			<path fill="#FFFFFF" d="M41.85,54.091c-3.415,0-6.182,2.766-6.182,6.182v13.909h47.786l20.091-20.091H41.85z"/>
		</g>
		<g>
			<rect x="72.636" y="61.818" fill="#12B2A0" width="24.727" height="6.182"/>
		</g>
		<g>
			<polygon fill="#47C4B7" points="95.818,61.818 72.636,61.818 72.636,68 89.636,68 			"/>
		</g>
		<g>
			<path fill="#CFD3D4" d="M35.545,74.182v43.273c0,0.885,0.634,1.966,1.65,2.864l46.136-46.136H35.545z"/>
		</g>
		<g>
			<rect x="44.818" y="61.818" fill="#FA5655" width="3.091" height="6.182"/>
		</g>
		<g>
			<rect x="51" y="61.818" fill="#F3B607" width="3.091" height="6.182"/>
		</g>
		<g>
			<rect x="57.182" y="61.818" fill="#47C4B7" width="3.091" height="6.182"/>
		</g>
		<g>
			<circle fill="#3E3E3F" cx="55.636" cy="95.818" r="13.6"/>
		</g>
		<g>
			<path fill="#F0F1F1" d="M114.363,78.818c-9.389,0-17,7.611-17,17c0,6.25,3.383,11.697,8.408,14.651l23.243-23.243
				C126.061,82.201,120.614,78.818,114.363,78.818z"/>
		</g>
		<g>
			<circle fill="#3E3E3F" cx="114.363" cy="95.818" r="13.6"/>
		</g>
		<g>
			<circle fill="#818284" cx="114.363" cy="95.818" r="5.1"/>
		</g>
		<g>
			<path fill="#F0F1F1" d="M114.363,78.818c-9.389,0-17,7.611-17,17s7.611,17,17,17s17-7.611,17-17S123.752,78.818,114.363,78.818z
				 M114.363,82.219c6.988,0,12.738,5.272,13.506,12.054h-27.012C101.625,87.49,107.376,82.219,114.363,82.219z M114.363,109.418
				c-6.988,0-12.738-5.272-13.506-12.054h27.012C127.101,104.146,121.351,109.418,114.363,109.418z"/>
		</g>
		<g>
			<polygon fill="#F0F1F1" points="83.331,74.182 75.727,74.182 75.727,81.786 			"/>
		</g>
		<g>
			<circle fill="#818284" cx="55.636" cy="95.818" r="5.1"/>
		</g>
		<g>
			<path fill="#F0F1F1" d="M55.636,78.818c-9.389,0-17,7.611-17,17s7.611,17,17,17s17-7.611,17-17S65.025,78.818,55.636,78.818z
				 M55.636,82.219c6.988,0,12.738,5.272,13.506,12.054H42.13C42.898,87.49,48.648,82.219,55.636,82.219z M55.636,109.418
				c-6.988,0-12.738-5.272-13.506-12.054h27.012C68.374,104.146,62.624,109.418,55.636,109.418z"/>
		</g>
	</g>
</g>
</svg>
