<?xml version="1.0" encoding="utf-8"?>
<!-- Generator: Adobe Illustrator 18.1.1, SVG Export Plug-In . SVG Version: 6.00 Build 0)  -->
<!DOCTYPE svg PUBLIC "-//W3C//DTD SVG 1.1//EN" "http://www.w3.org/Graphics/SVG/1.1/DTD/svg11.dtd">
<svg version="1.1" id="Layer_1" xmlns="http://www.w3.org/2000/svg" xmlns:xlink="http://www.w3.org/1999/xlink" x="0px" y="0px"
	 viewBox="0 0 225 225" enable-background="new 0 0 225 225" xml:space="preserve">
<g>
	<g>
		<circle fill="#F56462" cx="112.5" cy="112.5" r="112.5"/>
	</g>
	<g>
		<g>
			<path fill="#FBE158" d="M134.544,99.437l36.55-52.392h6.86l-38.991,55.887C137.561,101.684,136.104,100.495,134.544,99.437z"/>
		</g>
		<g>
			<path fill="#DF2C2C" d="M119.913,93.124l32.148-46.079h19.033l-36.55,52.392C130.178,96.473,125.227,94.32,119.913,93.124z"/>
		</g>
		<g>
			<path fill="#FBE158" d="M113.867,92.218l31.516-45.172h6.678l-32.148,46.079C117.944,92.681,115.927,92.38,113.867,92.218z"/>
		</g>
		<g>
			<circle fill="#F3B607" cx="112.5" cy="135" r="42.955"/>
		</g>
		<g>
			<circle fill="#FBE158" cx="112.5" cy="135" r="31.705"/>
		</g>
		<g>
			<g>
				<path fill="#FFFFFF" d="M177.745,100.501c0.12-0.018,0.209-0.121,0.209-0.242v-0.062c0-0.122-0.089-0.225-0.209-0.243
					c-6.835-1.026-10.764-4.956-11.79-11.79c-0.018-0.12-0.121-0.209-0.243-0.209h-0.062c-0.122,0-0.225,0.089-0.243,0.209
					c-1.026,6.834-4.955,10.764-11.79,11.79c-0.12,0.018-0.209,0.121-0.209,0.243v0.062c0,0.121,0.089,0.224,0.209,0.242
					c6.835,1.026,10.764,4.956,11.79,11.79c0.018,0.12,0.121,0.209,0.243,0.209h0.088c0.106,0,0.197-0.078,0.213-0.183
					C166.971,105.467,170.902,101.528,177.745,100.501z"/>
			</g>
		</g>
		<g>
			<g>
				<path fill="#FFFFFF" d="M75.438,163.956c0.14-0.021,0.244-0.141,0.244-0.283V163.6c0-0.142-0.104-0.262-0.244-0.283
					c-7.974-1.197-12.559-5.782-13.755-13.755c-0.021-0.14-0.141-0.243-0.283-0.243h-0.072c-0.142,0-0.262,0.104-0.283,0.244
					c-1.197,7.973-5.781,12.559-13.755,13.755c-0.141,0.021-0.244,0.141-0.244,0.283v0.072c0,0.142,0.104,0.262,0.244,0.283
					c7.974,1.197,12.559,5.782,13.755,13.755c0.021,0.14,0.141,0.243,0.283,0.243h0.103c0.124,0,0.229-0.091,0.248-0.213
					C62.868,169.749,67.454,165.154,75.438,163.956z"/>
			</g>
		</g>
		<g>
			<path fill="#FACB1B" d="M112.5,92.046c-23.723,0-42.955,19.232-42.955,42.955c0,12.027,4.957,22.887,12.923,30.684l60.715-60.715
				C135.387,97.002,124.528,92.046,112.5,92.046z"/>
		</g>
		<g>
			<path fill="#FCF6C2" d="M112.5,103.296c-17.51,0-31.705,14.194-31.705,31.705c0,8.921,3.697,16.968,9.628,22.729l44.805-44.806
				C129.468,106.993,121.421,103.296,112.5,103.296z"/>
		</g>
		<g>
			<g>
				<path fill="#F99134" d="M109.708,123.707c-1.103,0.286-3.698,1.057-4.758,1.057c-2.114,0-3.935-1.761-3.935-3.877
					c0-1.821,1.174-3.347,2.995-3.876l5.815-1.704c1.704-0.469,2.995-0.762,4.23-0.762h0.117c2.468,0,4.464,1.997,4.464,4.463
					v33.129c0,2.466-1.997,4.463-4.464,4.463s-4.464-1.997-4.464-4.463V123.707z"/>
			</g>
		</g>
		<g>
			<path fill="#FBE158" d="M90.456,99.437l-36.55-52.392h-6.86l38.991,55.887C87.439,101.684,88.896,100.495,90.456,99.437z"/>
		</g>
		<g>
			<path fill="#DF2C2C" d="M105.087,93.124L72.939,47.046H53.906l36.55,52.392C94.822,96.473,99.773,94.32,105.087,93.124z"/>
		</g>
		<g>
			<path fill="#FBE158" d="M111.133,92.218L79.617,47.046h-6.678l32.148,46.079C107.056,92.681,109.073,92.38,111.133,92.218z"/>
		</g>
	</g>
</g>
</svg>
