<?xml version="1.0" encoding="utf-8"?>
<!-- Generator: Adobe Illustrator 18.1.1, SVG Export Plug-In . SVG Version: 6.00 Build 0)  -->
<!DOCTYPE svg PUBLIC "-//W3C//DTD SVG 1.1//EN" "http://www.w3.org/Graphics/SVG/1.1/DTD/svg11.dtd">
<svg version="1.1" id="Layer_1" xmlns="http://www.w3.org/2000/svg" xmlns:xlink="http://www.w3.org/1999/xlink" x="0px" y="0px"
	 viewBox="0 0 576.451 640.471" enable-background="new 0 0 576.451 640.471" xml:space="preserve">
<g>
	<g>
		<g>
			<g>
				<circle fill="#FABC3D" cx="323.215" cy="578.977" r="61.494"/>
			</g>
		</g>
		<g>
			<g>
				<g>
					<g>
						<polygon fill="#F0F1F1" points="323.215,614.755 309.798,593.508 336.632,593.508 						"/>
					</g>
				</g>
			</g>
			<g>
				<g>
					<g>
						<path fill="#F7B4B4" d="M327.687,593.546h-4.472h-4.472l-6.708-4.195v3.598c0,0,0,8.386,11.181,8.386
							c11.181,0,11.181-8.386,11.181-8.386v-3.599L327.687,593.546z"/>
					</g>
				</g>
			</g>
			<g>
				<g>
					<path fill="#FBC8C8" d="M342.222,570.281c0-1.242-1.118-2.485-2.236-2.485s-1.118,1.243-1.118,1.243v-1.243
						c-0.02-10.063-1.145-16.771-15.653-16.771c-14.508,0-15.633,6.708-15.653,16.771v8.941l4.472,11.181l5.708,4.467
						c0.636,0.715,1.547,1.123,2.504,1.123h2.968h2.968c0.957,0,1.868-0.408,2.505-1.123l5.708-4.467l3.585-8.963
						C341.151,578.726,342.222,573.918,342.222,570.281z"/>
				</g>
			</g>
			<g>
				<g>
					<path fill="#FBD7D7" d="M307.562,567.796v1.243c0,0,0-1.243-1.118-1.243s-2.236,1.243-2.236,2.485
						c0,3.638,1.071,8.446,4.241,8.674l3.585,8.963l5.708,4.467c0.636,0.715,1.547,1.123,2.504,1.123h2.968v-42.484
						C308.707,551.025,307.582,557.733,307.562,567.796z"/>
				</g>
			</g>
			<g>
				<g>
					<g>
						<polygon fill="#FBC8C8" points="315.388,584.602 315.4,584.564 314.251,584.564 314.27,584.602 						"/>
					</g>
				</g>
				<g>
					<g>
						<path fill="#FBC8C8" d="M323.214,593.546h-4.472l-6.708-4.195v3.598c0,0,0,8.386,11.181,8.386L323.214,593.546
							L323.214,593.546z"/>
					</g>
				</g>
			</g>
			<g>
				<g>
					<path fill="#692E19" d="M337.534,555.804c0.11-0.467,0.163-0.939,0.163-1.411c0-3.177-1.015-5.347-14.482-5.559v-0.027
						c-0.708-0.011-1.44-0.018-2.219-0.018c-13.988,0-14.582,8.923-14.551,10.822c0.004,0.227,0.016,0.36,0.016,0.36
						s0,5.613,0,7.844c0,0.005,0,0.011,0,0.016c0,0,1.118,2.236,2.236,4.472v7.826l1.101,7.823l8.945,5.594h4.472l0,0h4.472
						l8.945-5.594l1.101-7.823v-7.826h0.035l2.236-4.472v-5.625C340.003,559.995,339.175,557.795,337.534,555.804z M332.159,584.602
						h-1.118l-2.236-6.708h-5.59l0,0h-5.59l-2.236,6.708h-1.118l-3.354-6.708v-18.289c3.733,2.511,7.616,2.652,12.299,2.633v-0.003
						c2.911-0.014,8.823,0.035,12.299-3.116v18.775L332.159,584.602z"/>
				</g>
			</g>
			<g>
				<g>
					<path fill="#84462D" d="M323.215,562.237v-13.43c-0.708-0.011-1.44-0.018-2.219-0.018c-15.653,0-14.535,11.181-14.535,11.181
						s0,5.625,0,7.861c0,0,1.118,2.236,2.236,4.472v7.826l1.101,7.823l8.945,5.594h4.472v-15.653h-5.59l-2.236,6.708h-1.118
						l-3.354-6.708v-18.298C313.364,561.241,315.317,562.267,323.215,562.237z"/>
				</g>
			</g>
			<g>
				<g>
					<g>
						<path fill="#3E3E3F" d="M319.861,570.029c0-1.235-1.001-2.236-2.236-2.236l-0.007,0.001c0.001,0.023,0.007,0.046,0.007,0.069
							c0,1.233-0.997,2.232-2.229,2.236c0.037,1.202,1.018,2.167,2.229,2.167C318.86,572.265,319.861,571.264,319.861,570.029z"/>
					</g>
				</g>
			</g>
			<g>
				<g>
					<g>
						<path fill="#3E3E3F" d="M331.034,570.029c0-1.235-1.001-2.236-2.236-2.236c0,0-0.004,0.001-0.007,0.001
							c0.001,0.023,0.007,0.046,0.007,0.069c0,1.233-0.997,2.232-2.229,2.236c0.037,1.202,1.018,2.167,2.229,2.167
							C330.033,572.265,331.034,571.264,331.034,570.029z"/>
					</g>
				</g>
			</g>
			<g>
				<g>
					<g>
						<polygon fill="#FFFFFF" points="309.798,593.508 312.034,592.39 323.198,597.959 316.507,604.689 						"/>
					</g>
				</g>
			</g>
			<g>
				<g>
					<g>
						<polygon fill="#FFFFFF" points="336.632,593.508 334.396,592.39 323.232,597.959 329.923,604.689 						"/>
					</g>
				</g>
			</g>
			<g>
				<g>
					<g>
						<polygon fill="#099686" points="327.687,614.755 324.557,603.351 326.569,601.34 323.194,597.959 319.842,601.312 
							321.874,603.344 318.743,614.755 						"/>
					</g>
				</g>
			</g>
			<g>
				<g>
					<g>
						<polygon fill="#12B2A0" points="323.215,614.755 323.215,597.98 323.194,597.959 319.842,601.312 321.874,603.344 
							318.743,614.755 						"/>
					</g>
				</g>
			</g>
			<g>
				<g>
					<g>
						<path fill="#3E3E3F" d="M287.437,614.755l4.472-12.299c0.688-1.49,1.898-2.677,3.402-3.335l14.487-5.61l13.417,21.243H287.437
							z"/>
					</g>
				</g>
			</g>
			<g>
				<g>
					<g>
						<path fill="#3E3E3F" d="M358.993,614.755l-4.472-12.299c-0.688-1.49-1.898-2.677-3.402-3.335l-14.487-5.61l-13.417,21.243
							H358.993z"/>
					</g>
				</g>
			</g>
			<g>
				<g>
					<g>
						<rect x="335.514" y="606.925" fill="#FFFFFF" width="11.181" height="2.236"/>
					</g>
				</g>
			</g>
			<g>
				<g>
					<g>
						<path fill="#FBC8C8" d="M318.743,581.21h8.945c0,0,0,4.476-4.472,4.476C318.743,585.685,318.743,581.21,318.743,581.21z"/>
					</g>
				</g>
			</g>
		</g>
	</g>
	<g>
		<g>
			<circle fill="#F56462" cx="167.417" cy="497.584" r="97.037"/>
		</g>
		<g>
			<g>
				<path fill="#FBE158" d="M186.432,486.317l31.526-45.191h5.918l-33.632,48.205C189.034,488.255,187.777,487.229,186.432,486.317z
					"/>
			</g>
			<g>
				<path fill="#DF2C2C" d="M173.811,480.872l27.729-39.745h16.417l-31.526,45.191C182.666,483.76,178.395,481.903,173.811,480.872z
					"/>
			</g>
			<g>
				<path fill="#FBE158" d="M168.597,480.09l27.184-38.964h5.76l-27.729,39.745C172.113,480.49,170.373,480.23,168.597,480.09z"/>
			</g>
			<g>
				<circle fill="#F3B607" cx="167.417" cy="516.992" r="37.051"/>
			</g>
			<g>
				<circle fill="#FBE158" cx="167.417" cy="516.992" r="27.347"/>
			</g>
			<g>
				<g>
					<path fill="#FFFFFF" d="M223.695,487.235c0.104-0.016,0.18-0.104,0.18-0.209v-0.054c0-0.105-0.077-0.194-0.18-0.209
						c-5.896-0.885-9.285-4.275-10.17-10.17c-0.016-0.104-0.104-0.18-0.209-0.18h-0.053c-0.105,0-0.194,0.077-0.209,0.18
						c-0.885,5.895-4.274,9.285-10.17,10.17c-0.104,0.016-0.18,0.105-0.18,0.209v0.054c0,0.105,0.077,0.194,0.18,0.209
						c5.896,0.885,9.285,4.275,10.17,10.17c0.016,0.104,0.104,0.18,0.209,0.18h0.076c0.092,0,0.17-0.067,0.183-0.158
						C214.402,491.518,217.792,488.12,223.695,487.235z"/>
				</g>
			</g>
			<g>
				<g>
					<path fill="#FFFFFF" d="M135.449,541.968c0.121-0.018,0.21-0.122,0.21-0.244v-0.063c0-0.122-0.089-0.226-0.21-0.244
						c-6.878-1.032-10.833-4.988-11.865-11.865c-0.018-0.121-0.122-0.21-0.244-0.21h-0.062c-0.122,0-0.226,0.089-0.244,0.21
						c-1.032,6.877-4.986,10.833-11.865,11.865c-0.121,0.018-0.21,0.122-0.21,0.244v0.062c0,0.122,0.089,0.226,0.21,0.244
						c6.878,1.032,10.833,4.987,11.865,11.865c0.018,0.121,0.122,0.21,0.244,0.21h0.089c0.107,0,0.198-0.078,0.214-0.184
						C124.607,546.965,128.562,543.001,135.449,541.968z"/>
				</g>
			</g>
			<g>
				<path fill="#FACB1B" d="M167.417,479.941c-20.463,0-37.051,16.588-37.051,37.051c0,10.374,4.275,19.741,11.147,26.466
					l52.37-52.37C187.158,484.217,177.792,479.941,167.417,479.941z"/>
			</g>
			<g>
				<path fill="#FCF6C2" d="M167.417,489.645c-15.103,0-27.347,12.243-27.347,27.347c0,7.695,3.189,14.636,8.305,19.605
					l38.647-38.647C182.053,492.834,175.112,489.645,167.417,489.645z"/>
			</g>
			<g>
				<g>
					<path fill="#F99134" d="M165.009,507.251c-0.951,0.247-3.189,0.912-4.104,0.912c-1.823,0-3.394-1.519-3.394-3.344
						c0-1.571,1.013-2.887,2.584-3.344l5.015-1.469c1.469-0.405,2.584-0.658,3.649-0.658h0.101c2.128,0,3.851,1.722,3.851,3.849
						v28.576c0,2.127-1.722,3.85-3.851,3.85s-3.851-1.723-3.851-3.85V507.251z"/>
				</g>
			</g>
			<g>
				<path fill="#FBE158" d="M148.403,486.317l-31.526-45.191h-5.918l33.632,48.205C145.801,488.255,147.058,487.229,148.403,486.317
					z"/>
			</g>
			<g>
				<path fill="#DF2C2C" d="M161.023,480.872l-27.729-39.745h-16.417l31.526,45.191C152.169,483.76,156.439,481.903,161.023,480.872
					z"/>
			</g>
			<g>
				<path fill="#FBE158" d="M166.238,480.09l-27.184-38.964h-5.76l27.729,39.745C162.721,480.49,164.462,480.23,166.238,480.09z"/>
			</g>
		</g>
	</g>
	<g>
		<g>
			<circle fill="#175A82" cx="496.264" cy="290.415" r="54.925"/>
		</g>
		<g>
			<g>
				<g>
					<g>
						<path fill="#FBC8C8" d="M478.289,314.383c0,0,3.773-10.376-2.432-17.377c-0.339-0.382-0.335-0.959,0.01-1.336
							c2.142-2.342,5.945-2.291,11.41,7.728c1.427,2.616,4.403,2.476,6.99,0.999c4.922-2.809,12.023-11.758,19.473-9.579
							c0.339,0.099,0.6,0.369,0.687,0.711c0.087,0.342-0.013,0.704-0.262,0.953l-25.89,25.89L478.289,314.383z"/>
					</g>
				</g>
			</g>
			<g>
				<g>
					<g>
						<path fill="#F0F1F1" d="M528.22,293.411c0,0.552-0.447,0.999-0.999,0.999h-61.915c-0.552,0-0.999-0.447-0.999-0.999v-1.997
							c0-0.552,0.447-0.999,0.999-0.999h61.915c0.552,0,0.999,0.447,0.999,0.999V293.411z"/>
					</g>
				</g>
			</g>
			<g>
				<g>
					<g>
						<path fill="#FFFFFF" d="M496.264,262.454c1.04,0,2.031,0.046,2.996,0.115v-3.111c0-0.551-0.447-0.999-0.999-0.999h-3.995
							c-0.551,0-0.999,0.447-0.999,0.999v3.111C494.233,262.5,495.224,262.454,496.264,262.454z"/>
					</g>
				</g>
			</g>
			<g>
				<g>
					<g>
						<path fill="#E2E4E5" d="M468.303,290.416c0,0-0.999-27.962,27.962-27.962s27.962,27.962,27.962,27.962H468.303z"/>
					</g>
				</g>
			</g>
			<g>
				<g>
					<g>
						<polygon fill="#3E3E3F" points="478.289,314.383 468.303,322.372 488.275,322.372 						"/>
					</g>
				</g>
			</g>
			<g>
				<g>
					<g>
						<path fill="#FFFFFF" d="M496.264,262.454c-28.96,0-27.962,27.962-27.962,27.962h27.962V262.454z"/>
					</g>
				</g>
			</g>
			<g>
				<g>
					<g>
						<path fill="#FBC8C8" d="M478.289,314.383c0,0,3.773-10.376-2.432-17.377c-0.339-0.382-0.335-0.959,0.01-1.336
							c2.142-2.342,5.945-2.291,11.41,7.728c1.427,2.616,4.403,2.476,6.99,0.999c4.922-2.809,12.023-11.758,19.473-9.579
							c0.339,0.099,0.6,0.369,0.687,0.711c0.087,0.342-0.013,0.704-0.262,0.953l-25.89,25.89L478.289,314.383z"/>
					</g>
				</g>
			</g>
			<g>
				<g>
					<g>
						<path fill="#F7B4B4" d="M514.165,296.482c0.25-0.25,0.35-0.611,0.262-0.953s-0.349-0.612-0.687-0.711
							c-7.45-2.179-14.552,6.77-19.473,9.579c-2.588,1.477-5.564,1.617-6.99-0.999c-5.465-10.019-9.268-10.069-11.41-7.728
							c-0.345,0.377-0.348,0.954-0.009,1.336c6.205,7.001,2.432,17.377,2.432,17.377l2.723,2.179l30.933-17.859L514.165,296.482z"/>
					</g>
				</g>
			</g>
		</g>
	</g>
	<g>
		<g>
			<g>
				<circle fill="#F56462" cx="297.884" cy="315.886" r="152.672"/>
			</g>
		</g>
		<g>
			<g>
				<g>
					<g>
						<polygon fill="#E2E4E5" points="331.194,351.965 325.642,349.189 270.125,349.189 264.574,351.965 297.884,404.714 						"/>
					</g>
				</g>
			</g>
			<g>
				<g>
					<path fill="#F8E1C2" d="M339.522,288.128c-2.776,0-2.776,3.085-2.776,3.085v-3.085c-0.006-2.956-0.053-5.792-0.187-8.501
						c-11.22-10.926-38.675-10.93-38.675-10.93s-27.455,0.004-38.675,10.93c-0.134,2.71-0.182,5.545-0.187,8.501v22.199
						l11.103,27.759l14.172,11.091c1.579,1.774,3.841,2.788,6.217,2.788h7.369h7.369c2.376,0,4.638-1.014,6.218-2.788l14.171-11.091
						l8.901-22.253c7.871-0.568,10.53-12.505,10.53-21.536C345.073,291.213,342.298,288.128,339.522,288.128z"/>
				</g>
			</g>
			<g>
				<g>
					<path fill="#FCF1E2" d="M259.022,288.128v3.085c0,0,0-3.085-2.776-3.085c-2.776,0-5.552,3.085-5.552,6.169
						c0,9.031,2.659,20.968,10.53,21.536l8.901,22.253l14.172,11.091c1.579,1.774,3.841,2.788,6.217,2.788h7.369v-83.268
						c0,0-27.455,0.004-38.675,10.93C259.075,282.336,259.027,285.172,259.022,288.128z"/>
				</g>
			</g>
			<g>
				<g>
					<g>
						<path fill="#F79392" d="M284.005,321.43h27.759c0,0,0,8.328-13.879,8.328S284.005,321.43,284.005,321.43z"/>
					</g>
				</g>
			</g>
			<g>
				<g>
					<g>
						<path fill="#3E3E3F" d="M314.539,294.573c3.306,0,6.24,0.737,8.275,1.883c0.197-1.579-0.477-3.204-2.077-4.414
							c-2.86-2.167-7.501-2.167-10.362,0c-1.289,0.977-1.969,2.224-2.09,3.498C310.066,294.931,312.219,294.573,314.539,294.573z"/>
					</g>
				</g>
			</g>
			<g>
				<g>
					<g>
						<path fill="#3E3E3F" d="M281.209,294.573c-3.306,0-6.24,0.737-8.275,1.883c-0.197-1.579,0.477-3.204,2.076-4.414
							c2.86-2.167,7.501-2.167,10.362,0c1.289,0.977,1.969,2.224,2.09,3.498C285.682,294.931,283.53,294.573,281.209,294.573z"/>
					</g>
				</g>
			</g>
			<g>
				<g>
					<path fill="#F4D0A1" d="M305.253,351.965h-7.369h-7.369c-2.376,0-4.638-1.014-6.217-2.788l-14.172-11.091v12.491
						c0,0,0,20.819,27.759,20.819s27.759-20.819,27.759-20.819v-12.491l-14.171,11.091
						C309.891,350.951,307.629,351.965,305.253,351.965z"/>
				</g>
			</g>
			<g>
				<g>
					<g>
						<path fill="#3E3E3F" d="M297.884,268.697c0,0-2.105,0.001-5.378,0.232c0,3.471,0,11.777,0,15.614
							c10.323,0,16.577-7.451,20.193-14.53C304.574,268.7,297.884,268.697,297.884,268.697z"/>
					</g>
				</g>
				<g>
					<g>
						<path fill="#3E3E3F" d="M272.676,272.394c-5.264,1.638-10.245,3.997-13.654,7.406c0,9.831,6.448,14.573,6.448,14.573
							C264.655,286.168,264.609,280.822,272.676,272.394z"/>
					</g>
				</g>
				<g>
					<g>
						<path fill="#3E3E3F" d="M275.301,271.644c0,2.647,0,7.769,0,12.899c7.954,0,14.294-11.254,16.428-15.556
							C287.386,269.325,281.303,270.058,275.301,271.644z"/>
					</g>
				</g>
				<g>
					<g>
						<path fill="#3E3E3F" d="M329.372,274.818c0,1.075,0,12.532,0,19.556c6.907,0,7.344-12.937,7.371-14.575
							C334.743,277.797,332.196,276.163,329.372,274.818z"/>
					</g>
				</g>
				<g>
					<g>
						<path fill="#3E3E3F" d="M317.083,270.836c0,4.705,0,9.789,0,13.707c9.31,0,12.005-8.803,12.264-9.739
							C325.553,273.002,321.259,271.73,317.083,270.836z"/>
					</g>
				</g>
			</g>
			<g>
				<g>
					<path fill="#F8E1C2" d="M284.297,349.176l-14.172-11.091v12.491c0,0,0,20.819,27.759,20.819v-19.431h-7.369
						C288.139,351.965,285.876,350.951,284.297,349.176z"/>
				</g>
			</g>
			<g>
				<g>
					<g>
						<path fill="#FA5655" d="M240.954,311.571V257.11c-1.934-0.69-3.798-1.368-5.552-2.021v56.482
							c-7.246,4.774-2.776,19.015-2.776,26.522c2.762,0,4.287,0,5.113,0c0.178,0,0.323,0,0.439,0c0.362,0,0.468,0,0.439,0
							c0.826,0,2.35,0,5.113,0C243.73,330.586,248.201,316.344,240.954,311.571z"/>
					</g>
				</g>
				<g>
					<g>
						<path fill="#3E3E3F" d="M372.832,249.266c0-2.776-69.396-22.207-74.948-22.207c-5.552,0-74.948,19.431-74.948,22.207
							c0,1.736,20.63,8.901,36.086,14.026c0,4.786,0,10.458,0,16.509c11.103-11.103,38.862-11.103,38.862-11.103
							s27.759,0,38.862,11.103c0-6.05,0-11.723,0-16.509C352.202,258.167,372.832,251.002,372.832,249.266z"/>
					</g>
				</g>
			</g>
			<g>
				<g>
					<g>
						<polygon fill="#FFFFFF" points="331.096,352.135 331.194,351.973 325.642,349.197 297.926,363.023 314.006,379.194 						"/>
					</g>
				</g>
			</g>
			<g>
				<g>
					<g>
						<polygon fill="#DF2C2C" points="308.987,404.714 301.217,376.401 306.21,371.409 297.832,363.015 289.51,371.337 
							294.555,376.382 286.78,404.714 						"/>
					</g>
				</g>
			</g>
			<g>
				<g>
					<g>
						<polygon fill="#FA5655" points="297.884,404.714 297.884,363.067 297.832,363.015 289.51,371.337 294.555,376.382 
							286.78,404.714 						"/>
					</g>
				</g>
			</g>
			<g>
				<g>
					<g>
						<polygon fill="#FFFFFF" points="264.671,352.135 264.574,351.973 270.125,349.197 297.842,363.023 281.761,379.194 						"/>
					</g>
				</g>
			</g>
			<g>
				<g>
					<g>
						<path fill="#3E3E3F" d="M209.057,404.714l11.103-30.534c1.708-3.7,4.713-6.646,8.446-8.279l35.967-13.928l33.31,52.741
							H209.057z"/>
					</g>
				</g>
			</g>
			<g>
				<g>
					<g>
						<path fill="#3E3E3F" d="M386.711,404.714l-11.103-30.534c-1.708-3.7-4.713-6.646-8.446-8.279l-35.967-13.928l-33.31,52.741
							H386.711z"/>
					</g>
				</g>
			</g>
			<g>
				<g>
					<g>
						<polygon fill="#9E9FA0" points="297.884,404.714 264.574,351.973 239.591,360.3 286.78,404.714 						"/>
					</g>
				</g>
			</g>
			<g>
				<g>
					<g>
						<polygon fill="#9E9FA0" points="297.884,404.714 331.194,351.973 356.177,360.3 308.987,404.714 						"/>
					</g>
				</g>
			</g>
		</g>
	</g>
	<g>
		<g>
			<circle fill="#F56462" cx="450.556" cy="474.988" r="114.069"/>
		</g>
		<g>
			<g>
				<path fill="#E2E4E5" d="M516.923,541.355H384.189v-0.083c0-4.536,3.677-8.213,8.213-8.213H508.71
					c4.536,0,8.213,3.677,8.213,8.213V541.355z"/>
			</g>
			<g>
				<rect x="392.485" y="458.396" fill="#FFFFFF" width="116.143" height="74.663"/>
			</g>
			<g>
				<path fill="#DF2C2C" d="M403.151,458.396c0,4.582-4.245,8.296-9.481,8.296c-5.236,0-9.481-3.714-9.481-8.296H403.151z"/>
			</g>
			<g>
				<path fill="#CFD3D4" d="M422.113,458.396c0,4.582-4.245,8.296-9.481,8.296s-9.481-3.714-9.481-8.296H422.113z"/>
			</g>
			<g>
				<path fill="#DF2C2C" d="M441.075,458.396c0,4.582-4.245,8.296-9.481,8.296c-5.236,0-9.481-3.714-9.481-8.296H441.075z"/>
			</g>
			<g>
				<path fill="#CFD3D4" d="M460.037,458.396c0,4.582-4.245,8.296-9.481,8.296s-9.481-3.714-9.481-8.296H460.037z"/>
			</g>
			<g>
				<path fill="#CFD3D4" d="M497.961,458.396c0,4.582-4.245,8.296-9.481,8.296s-9.481-3.714-9.481-8.296H497.961z"/>
			</g>
			<g>
				<path fill="#DF2C2C" d="M478.999,458.396c0,4.582-4.245,8.296-9.481,8.296c-5.236,0-9.481-3.714-9.481-8.296H478.999z"/>
			</g>
			<g>
				<path fill="#DF2C2C" d="M516.923,458.396c0,4.582-4.245,8.296-9.481,8.296c-5.236,0-9.481-3.714-9.481-8.296H516.923z"/>
			</g>
			<g>
				<polygon fill="#FA5655" points="384.189,458.396 403.151,458.396 419.743,416.917 403.151,416.917 				"/>
			</g>
			<g>
				<polygon fill="#FFFFFF" points="403.151,458.396 422.113,458.396 433.964,416.917 419.743,416.917 				"/>
			</g>
			<g>
				<polygon fill="#FA5655" points="422.113,458.396 441.075,458.396 448.186,416.917 433.964,416.917 				"/>
			</g>
			<g>
				<polygon fill="#FFFFFF" points="441.075,458.396 460.037,458.396 460.037,416.917 448.186,416.917 				"/>
			</g>
			<g>
				<polygon fill="#FA5655" points="516.923,458.396 497.961,458.396 486.11,416.917 500.332,416.917 				"/>
			</g>
			<g>
				<polygon fill="#FFFFFF" points="497.961,458.396 478.999,458.396 471.888,416.917 486.11,416.917 				"/>
			</g>
			<g>
				<polygon fill="#FA5655" points="478.999,458.396 460.037,458.396 460.037,416.917 471.888,416.917 				"/>
			</g>
			<g>
				<rect x="400.78" y="474.988" fill="#6FDAF1" width="58.071" height="33.184"/>
			</g>
			<g>
				<polygon fill="#40C9E7" points="458.852,508.172 400.78,508.172 458.852,474.988 				"/>
			</g>
			<g>
				<rect x="471.296" y="474.988" fill="#40C9E7" width="29.036" height="26.962"/>
			</g>
			<g>
				<rect x="471.296" y="508.172" fill="#40C9E7" width="29.036" height="24.888"/>
			</g>
			<g>
				<path fill="#099686" d="M456.732,518.542c0.539-6.757-7.062-11.666-15.361-11.666c-4.819,0-9.118,1.584-11.944,4.062
					c-1.284-2.451-3.415-4.062-5.833-4.062c-2.266,0-4.262,1.435-5.565,3.629c-1.608-3.979-5.407-6.777-9.842-6.777
					c-5.186,0-9.499,3.826-10.458,8.893c-0.743-0.642-1.626-1.023-2.578-1.023c-2.809,0-4.989,3.194-4.691,6.944H456.732z"/>
			</g>
			<g>
				<rect x="390.411" y="518.542" fill="#9C6144" width="66.367" height="14.518"/>
			</g>
			<g>
				<rect x="390.411" y="518.542" fill="#AF7653" width="66.367" height="4.148"/>
			</g>
		</g>
	</g>
	<g>
		<g>
			<circle fill="#E04F5F" cx="97.037" cy="205.615" r="97.037"/>
		</g>
		<g>
			<g>
				<rect x="47.636" y="156.214" fill="#FBE158" width="56.458" height="98.802"/>
			</g>
			<g>
				<rect x="104.095" y="156.214" fill="#F99134" width="42.344" height="77.63"/>
			</g>
			<g>
				<polygon fill="#FFFFFF" points="40.579,149.157 153.495,149.157 146.438,156.214 47.637,156.214 				"/>
			</g>
			<g>
				<polygon fill="#FFFFFF" points="40.579,262.073 104.095,262.073 104.095,255.016 47.637,255.016 				"/>
			</g>
			<g>
				<rect x="104.095" y="233.844" fill="#CFD3D4" width="42.344" height="28.229"/>
			</g>
			<g>
				<path fill="#FFFFFF" d="M139.381,233.844h-28.229v-22.936c0-7.795,6.319-14.115,14.115-14.115s14.115,6.319,14.115,14.115
					V233.844z"/>
			</g>
			<g>
				<path fill="#40C9E7" d="M116.445,210.908c0-4.872,3.95-8.822,8.822-8.822c4.872,0,8.822,3.95,8.822,8.822H116.445z"/>
			</g>
			<g>
				<rect x="116.445" y="214.436" fill="#E2E4E5" width="17.643" height="19.407"/>
			</g>
			<g>
				<rect x="104.095" y="255.016" fill="#F0F1F1" width="42.344" height="3.529"/>
			</g>
			<g>
				<rect x="104.095" y="247.958" fill="#F0F1F1" width="42.344" height="3.529"/>
			</g>
			<g>
				<rect x="104.095" y="240.901" fill="#F0F1F1" width="42.344" height="3.529"/>
			</g>
			<g>
				<rect x="104.095" y="233.844" fill="#F0F1F1" width="42.344" height="3.529"/>
			</g>
			<g>
				<path fill="#40C9E7" d="M125.266,184.443c-4.865,0-8.822-3.957-8.822-8.822s3.957-8.822,8.822-8.822s8.822,3.957,8.822,8.822
					S130.131,184.443,125.266,184.443z"/>
			</g>
			<g>
				<path fill="#FFFFFF" d="M125.266,166.8c4.864,0,8.822,3.958,8.822,8.822s-3.957,8.822-8.822,8.822s-8.822-3.958-8.822-8.822
					S120.402,166.8,125.266,166.8 M125.266,163.271c-6.821,0-12.35,5.529-12.35,12.35s5.529,12.35,12.35,12.35
					c6.821,0,12.35-5.529,12.35-12.35S132.087,163.271,125.266,163.271L125.266,163.271z"/>
			</g>
			<g>
				<path fill="#40C9E7" d="M72.337,246.194H54.694v-26.465c0-4.872,3.95-8.822,8.822-8.822s8.822,3.95,8.822,8.822V246.194z"/>
			</g>
			<g>
				<rect x="54.694" y="233.844" fill="#40C9E7" width="17.643" height="12.35"/>
			</g>
			<g>
				<path fill="#40C9E7" d="M97.037,246.194H79.394v-26.465c0-4.872,3.95-8.822,8.822-8.822c4.872,0,8.822,3.95,8.822,8.822V246.194
					z"/>
			</g>
			<g>
				<rect x="79.394" y="233.844" fill="#40C9E7" width="17.643" height="12.35"/>
			</g>
			<g>
				<path fill="#40C9E7" d="M97.037,198.558H79.394v-26.465c0-4.872,3.95-8.822,8.822-8.822c4.872,0,8.822,3.95,8.822,8.822V198.558
					z"/>
			</g>
			<g>
				<rect x="79.394" y="186.207" fill="#40C9E7" width="17.643" height="12.35"/>
			</g>
			<g>
				<path fill="#6FDAF1" d="M97.037,174.475v-2.382c0-4.872-3.949-8.822-8.822-8.822c-4.872,0-8.822,3.95-8.822,8.822v20.025
					L97.037,174.475z"/>
			</g>
			<g>
				<polygon fill="#6FDAF1" points="85.305,186.207 79.394,186.207 79.394,192.118 				"/>
			</g>
			<g>
				<path fill="#6FDAF1" d="M72.337,222.111v-2.382c0-4.872-3.949-8.822-8.822-8.822s-8.822,3.95-8.822,8.822v20.025L72.337,222.111
					z"/>
			</g>
			<g>
				<polygon fill="#6FDAF1" points="60.605,233.844 54.694,233.844 54.694,239.754 				"/>
			</g>
			<g>
				<path fill="#6FDAF1" d="M97.037,222.111v-2.382c0-4.872-3.949-8.822-8.822-8.822c-4.872,0-8.822,3.95-8.822,8.822v20.025
					L97.037,222.111z"/>
			</g>
			<g>
				<polygon fill="#6FDAF1" points="85.305,233.844 79.394,233.844 79.394,239.754 				"/>
			</g>
			<g>
				<rect x="79.394" y="182.679" fill="#FFFFFF" width="17.643" height="3.529"/>
			</g>
			<g>
				<rect x="54.694" y="230.315" fill="#FFFFFF" width="17.643" height="3.529"/>
			</g>
			<g>
				<rect x="79.394" y="230.315" fill="#FFFFFF" width="17.643" height="3.529"/>
			</g>
			<g>
				<polygon fill="#FFFFFF" points="40.579,198.558 104.095,198.558 104.095,205.615 47.637,205.615 				"/>
			</g>
			<g>
				<path fill="#40C9E7" d="M72.337,198.558H54.694v-26.465c0-4.872,3.95-8.822,8.822-8.822s8.822,3.95,8.822,8.822V198.558z"/>
			</g>
			<g>
				<rect x="54.694" y="186.207" fill="#40C9E7" width="17.643" height="12.35"/>
			</g>
			<g>
				<path fill="#6FDAF1" d="M72.337,174.475v-2.382c0-4.872-3.949-8.822-8.822-8.822s-8.822,3.95-8.822,8.822v20.025L72.337,174.475
					z"/>
			</g>
			<g>
				<rect x="54.694" y="182.679" fill="#FFFFFF" width="17.643" height="3.529"/>
			</g>
			<g>
				<path fill="#FFFFFF" d="M146.438,262.073h7.057v-38.815c0-1.949-1.58-3.529-3.529-3.529c-1.949,0-3.529,1.58-3.529,3.529
					V262.073z"/>
			</g>
		</g>
	</g>
	<g>
		<circle fill="#F56462" cx="449.694" cy="122.916" r="122.915"/>
		<g>
			<g>
				<defs>
					<circle id="SVGID_31_" cx="449.694" cy="122.916" r="122.915"/>
				</defs>
				<clipPath id="SVGID_2_">
					<use xlink:href="#SVGID_31_"  overflow="visible"/>
				</clipPath>
				<g clip-path="url(#SVGID_2_)">
					<path fill="#242424" d="M364.282,211.261c22.117,21.387,52.215,34.57,85.412,34.57c33.197,0,63.296-13.183,85.412-34.57
						H364.282z"/>
					<path fill="#333333" d="M530.947,215.102c1.414-1.249,2.804-2.528,4.16-3.841H364.282c1.356,1.313,2.746,2.592,4.16,3.841
						H530.947z"/>
					<g>
						<g>
							<rect x="324.858" y="96.028" fill="#E1E1E1" width="88.345" height="115.233"/>
							<path fill="#F79392" d="M418.966,90.266c0-1.056-0.865-1.921-1.921-1.921h-96.028c-1.056,0-1.921,0.865-1.921,1.921v3.841
								c0,1.056,0.865,1.921,1.921,1.921h96.028c1.056,0,1.921-0.865,1.921-1.921V90.266z"/>
							<rect x="324.858" y="96.028" fill="#BABABA" width="88.345" height="1.921"/>
							<g>
								<g>
									<rect x="338.302" y="138.28" fill="#9FB9C7" width="23.047" height="30.729"/>
									<rect x="340.223" y="140.201" fill="#BDDDED" width="19.206" height="26.888"/>
								</g>
								<g>
									<rect x="376.713" y="138.28" fill="#9FB9C7" width="23.047" height="30.729"/>
									<rect x="378.634" y="140.201" fill="#BDDDED" width="19.206" height="26.888"/>
								</g>
							</g>
							<g>
								<g>
									<rect x="338.302" y="103.71" fill="#9FB9C7" width="23.047" height="30.729"/>
									<rect x="340.223" y="105.631" fill="#BDDDED" width="19.206" height="26.888"/>
									<g>
										<defs>
											<rect id="SVGID_33_" x="340.223" y="105.631" width="19.206" height="26.888"/>
										</defs>
										<clipPath id="SVGID_4_">
											<use xlink:href="#SVGID_33_"  overflow="visible"/>
										</clipPath>
										<g clip-path="url(#SVGID_4_)">
											<path fill="#40C9E7" d="M350.106,91.087c-5.878,0-11,4.765-11,10.643v17.029v15.116h22v-15.116V101.73
												C361.106,95.852,355.985,91.087,350.106,91.087z"/>
											<g>
												<path fill="#6FDAF1" d="M360.549,104.604v-2.874c0-5.878-4.765-10.643-10.643-10.643
													c-5.878,0-10.643,4.766-10.643,10.643v24.16L360.549,104.604z"/>
											</g>
										</g>
									</g>
								</g>
								<g>
									<rect x="376.713" y="103.71" fill="#9FB9C7" width="23.047" height="30.729"/>
									<rect x="378.634" y="105.631" fill="#BDDDED" width="19.206" height="26.888"/>
								</g>
							</g>
							<rect x="355.587" y="176.691" fill="#9FB9C7" width="26.888" height="34.57"/>
							<rect x="357.508" y="178.612" fill="#40C9E7" width="23.047" height="32.649"/>
							<path fill="#F79392" d="M386.316,174.77c0,1.056-0.865,1.921-1.921,1.921h-30.729c-1.056,0-1.921-0.865-1.921-1.921l0,0
								c0-1.056,0.865-1.921,1.921-1.921h30.729C385.452,172.85,386.316,173.715,386.316,174.77L386.316,174.77z"/>
						</g>
						<g>
							<rect x="482.344" y="96.028" fill="#E1E1E1" width="88.345" height="115.233"/>
							<rect x="491.947" y="96.028" fill="#BABABA" width="3.841" height="115.233"/>
							<path fill="#F79392" d="M576.451,90.266c0-1.056-0.865-1.921-1.921-1.921h-96.028c-1.056,0-1.921,0.865-1.921,1.921v3.841
								c0,1.056,0.865,1.921,1.921,1.921h96.028c1.056,0,1.921-0.865,1.921-1.921V90.266z"/>
							<rect x="482.344" y="96.028" fill="#BABABA" width="88.345" height="1.921"/>
							<g>
								<g>
									<rect x="495.788" y="138.28" fill="#9FB9C7" width="23.047" height="30.729"/>
									<rect x="497.708" y="140.201" fill="#BDDDED" width="19.206" height="26.888"/>
								</g>
								<g>
									<rect x="534.199" y="138.28" fill="#9FB9C7" width="23.047" height="30.729"/>
									<rect x="536.119" y="140.201" fill="#BDDDED" width="19.206" height="26.888"/>
								</g>
							</g>
							<g>
								<g>
									<rect x="495.788" y="103.71" fill="#9FB9C7" width="23.047" height="30.729"/>
									<rect x="497.708" y="105.631" fill="#BDDDED" width="19.206" height="26.888"/>
								</g>
								<g>
									<rect x="534.199" y="103.71" fill="#9FB9C7" width="23.047" height="30.729"/>
									<rect x="536.119" y="105.631" fill="#BDDDED" width="19.206" height="26.888"/>
								</g>
							</g>
							<rect x="513.073" y="176.691" fill="#9FB9C7" width="26.888" height="34.57"/>
							<rect x="514.993" y="178.612" fill="#40C9E7" width="23.047" height="32.649"/>
							<path fill="#F79392" d="M543.802,174.77c0,1.056-0.865,1.921-1.921,1.921h-30.729c-1.056,0-1.921-0.865-1.921-1.921l0,0
								c0-1.056,0.865-1.921,1.921-1.921h30.729C542.937,172.85,543.802,173.715,543.802,174.77L543.802,174.77z"/>
						</g>
						<rect x="403.601" y="46.093" fill="#F0F0F0" width="88.345" height="165.168"/>
						<rect x="488.106" y="46.093" fill="#E1E1E1" width="3.841" height="165.168"/>
						<g>
							<g>
								<rect x="417.045" y="55.696" fill="#9FB9C7" width="23.047" height="30.729"/>
								<rect x="418.966" y="57.617" fill="#BDDDED" width="19.206" height="26.888"/>
							</g>
							<g>
								<rect x="455.456" y="55.696" fill="#9FB9C7" width="23.047" height="30.729"/>
								<rect x="457.377" y="57.617" fill="#BDDDED" width="19.206" height="26.888"/>
							</g>
						</g>
						<g>
							<g>
								<rect x="417.045" y="138.28" fill="#9FB9C7" width="23.047" height="30.729"/>
								<rect x="418.966" y="140.201" fill="#BDDDED" width="19.206" height="26.888"/>
							</g>
							<g>
								<rect x="455.456" y="138.28" fill="#9FB9C7" width="23.047" height="30.729"/>
								<rect x="457.377" y="140.201" fill="#BDDDED" width="19.206" height="26.888"/>
							</g>
						</g>
						<g>
							<g>
								<rect x="417.045" y="103.71" fill="#9FB9C7" width="23.047" height="30.729"/>
								<rect x="418.966" y="105.631" fill="#BDDDED" width="19.206" height="26.888"/>
							</g>
							<g>
								<rect x="455.456" y="103.71" fill="#9FB9C7" width="23.047" height="30.729"/>
								<rect x="457.377" y="105.631" fill="#BDDDED" width="19.206" height="26.888"/>
							</g>
						</g>
						<rect x="434.33" y="176.691" fill="#9FB9C7" width="26.888" height="34.57"/>
						<rect x="436.251" y="178.612" fill="#40C9E7" width="23.047" height="32.649"/>
						<path fill="#F79392" d="M497.708,40.332c0-1.056-0.865-1.921-1.921-1.921H399.76c-1.056,0-1.921,0.865-1.921,1.921v3.841
							c0,1.056,0.865,1.921,1.921,1.921h96.028c1.056,0,1.921-0.865,1.921-1.921V40.332z"/>
						<rect x="403.601" y="46.093" fill="#E1E1E1" width="88.345" height="1.921"/>
						<path fill="#F79392" d="M465.059,174.77c0,1.056-0.865,1.921-1.921,1.921h-30.729c-1.056,0-1.921-0.865-1.921-1.921l0,0
							c0-1.056,0.865-1.921,1.921-1.921h30.729C464.194,172.85,465.059,173.715,465.059,174.77L465.059,174.77z"/>
						<rect x="407.442" y="92.187" fill="#E1E1E1" width="76.822" height="3.841"/>
					</g>
					<g>
						<defs>
							<rect id="SVGID_35_" x="378.634" y="105.631" width="19.206" height="26.888"/>
						</defs>
						<clipPath id="SVGID_6_">
							<use xlink:href="#SVGID_35_"  overflow="visible"/>
						</clipPath>
						<g clip-path="url(#SVGID_6_)">
							<path fill="#40C9E7" d="M388.606,91.087c-5.878,0-10.5,4.765-10.5,10.643v17.029v15.116h21v-15.116V101.73
								C399.106,95.852,394.485,91.087,388.606,91.087z"/>
							<g>
								<path fill="#6FDAF1" d="M398.96,104.604v-2.874c0-5.878-4.765-10.643-10.643-10.643c-5.878,0-10.643,4.766-10.643,10.643
									v24.16L398.96,104.604z"/>
							</g>
						</g>
					</g>
					<g>
						<defs>
							<rect id="SVGID_37_" x="378.634" y="140.201" width="19.206" height="26.888"/>
						</defs>
						<clipPath id="SVGID_8_">
							<use xlink:href="#SVGID_37_"  overflow="visible"/>
						</clipPath>
						<g clip-path="url(#SVGID_8_)">
							<path fill="#40C9E7" d="M388.606,125.657c-5.878,0-10.5,4.765-10.5,10.643v17.029v15.546h21v-15.546V136.3
								C399.106,130.422,394.485,125.657,388.606,125.657z"/>
							<g>
								<path fill="#6FDAF1" d="M398.96,139.174V136.3c0-5.878-4.765-10.643-10.643-10.643c-5.878,0-10.643,4.766-10.643,10.643
									v24.16L398.96,139.174z"/>
							</g>
						</g>
					</g>
					<g>
						<defs>
							<rect id="SVGID_39_" x="340.223" y="140.201" width="19.206" height="26.888"/>
						</defs>
						<clipPath id="SVGID_10_">
							<use xlink:href="#SVGID_39_"  overflow="visible"/>
						</clipPath>
						<g clip-path="url(#SVGID_10_)">
							<path fill="#40C9E7" d="M350.106,125.657c-5.878,0-11,4.765-11,10.643v17.029v15.546h22v-15.546V136.3
								C361.106,130.422,355.985,125.657,350.106,125.657z"/>
							<g>
								<path fill="#6FDAF1" d="M360.549,139.174V136.3c0-5.878-4.765-10.643-10.643-10.643c-5.878,0-10.643,4.766-10.643,10.643
									v24.16L360.549,139.174z"/>
							</g>
						</g>
					</g>
					<g>
						<defs>
							<rect id="SVGID_41_" x="457.377" y="140.201" width="19.206" height="26.888"/>
						</defs>
						<clipPath id="SVGID_12_">
							<use xlink:href="#SVGID_41_"  overflow="visible"/>
						</clipPath>
						<g clip-path="url(#SVGID_12_)">
							<path fill="#40C9E7" d="M467.106,125.657c-5.878,0-11,4.765-11,10.643v17.029v15.546h22v-15.546V136.3
								C478.106,130.422,472.985,125.657,467.106,125.657z"/>
							<g>
								<path fill="#6FDAF1" d="M477.703,139.174V136.3c0-5.878-4.765-10.643-10.643-10.643s-10.643,4.766-10.643,10.643v24.16
									L477.703,139.174z"/>
							</g>
						</g>
					</g>
					<g>
						<defs>
							<rect id="SVGID_43_" x="418.966" y="140.201" width="19.206" height="26.888"/>
						</defs>
						<clipPath id="SVGID_14_">
							<use xlink:href="#SVGID_43_"  overflow="visible"/>
						</clipPath>
						<g clip-path="url(#SVGID_14_)">
							<path fill="#40C9E7" d="M428.606,125.657c-5.878,0-10.5,4.765-10.5,10.643v17.029v15.546h21v-15.546V136.3
								C439.106,130.422,434.485,125.657,428.606,125.657z"/>
							<g>
								<path fill="#6FDAF1" d="M439.291,139.174V136.3c0-5.878-4.765-10.643-10.643-10.643s-10.643,4.766-10.643,10.643v24.16
									L439.291,139.174z"/>
							</g>
						</g>
					</g>
					<g>
						<defs>
							<rect id="SVGID_45_" x="536.119" y="140.201" width="19.206" height="26.888"/>
						</defs>
						<clipPath id="SVGID_16_">
							<use xlink:href="#SVGID_45_"  overflow="visible"/>
						</clipPath>
						<g clip-path="url(#SVGID_16_)">
							<path fill="#40C9E7" d="M546.106,125.657c-5.878,0-11,4.765-11,10.643v17.029v15.546h22v-15.546V136.3
								C557.106,130.422,551.985,125.657,546.106,125.657z"/>
							<g>
								<path fill="#6FDAF1" d="M556.445,139.174V136.3c0-5.878-4.765-10.643-10.643-10.643c-5.878,0-10.643,4.766-10.643,10.643
									v24.16L556.445,139.174z"/>
							</g>
						</g>
					</g>
					<g>
						<defs>
							<rect id="SVGID_47_" x="497.708" y="140.201" width="19.206" height="26.888"/>
						</defs>
						<clipPath id="SVGID_18_">
							<use xlink:href="#SVGID_47_"  overflow="visible"/>
						</clipPath>
						<g clip-path="url(#SVGID_18_)">
							<path fill="#40C9E7" d="M507.606,125.657c-5.878,0-10.5,4.765-10.5,10.643v17.029v15.546h21v-15.546V136.3
								C518.106,130.422,513.485,125.657,507.606,125.657z"/>
							<g>
								<path fill="#6FDAF1" d="M518.034,139.174V136.3c0-5.878-4.765-10.643-10.643-10.643c-5.878,0-10.643,4.766-10.643,10.643
									v24.16L518.034,139.174z"/>
							</g>
						</g>
					</g>
					<g>
						<defs>
							<rect id="SVGID_49_" x="536.119" y="105.631" width="19.206" height="26.888"/>
						</defs>
						<clipPath id="SVGID_20_">
							<use xlink:href="#SVGID_49_"  overflow="visible"/>
						</clipPath>
						<g clip-path="url(#SVGID_20_)">
							<path fill="#40C9E7" d="M546.106,91.087c-5.878,0-11,4.765-11,10.643v17.029v15.116h22v-15.116V101.73
								C557.106,95.852,551.985,91.087,546.106,91.087z"/>
							<g>
								<path fill="#6FDAF1" d="M556.445,104.604v-2.874c0-5.878-4.765-10.643-10.643-10.643c-5.878,0-10.643,4.766-10.643,10.643
									v24.16L556.445,104.604z"/>
							</g>
						</g>
					</g>
					<g>
						<defs>
							<rect id="SVGID_51_" x="497.708" y="105.631" width="19.206" height="26.888"/>
						</defs>
						<clipPath id="SVGID_22_">
							<use xlink:href="#SVGID_51_"  overflow="visible"/>
						</clipPath>
						<g clip-path="url(#SVGID_22_)">
							<path fill="#40C9E7" d="M507.606,91.087c-5.878,0-10.5,4.765-10.5,10.643v17.029v15.116h21v-15.116V101.73
								C518.106,95.852,513.485,91.087,507.606,91.087z"/>
							<g>
								<path fill="#6FDAF1" d="M518.034,104.604v-2.874c0-5.878-4.765-10.643-10.643-10.643c-5.878,0-10.643,4.766-10.643,10.643
									v24.16L518.034,104.604z"/>
							</g>
						</g>
					</g>
					<g>
						<defs>
							<rect id="SVGID_53_" x="457.377" y="105.631" width="19.206" height="26.888"/>
						</defs>
						<clipPath id="SVGID_24_">
							<use xlink:href="#SVGID_53_"  overflow="visible"/>
						</clipPath>
						<g clip-path="url(#SVGID_24_)">
							<path fill="#40C9E7" d="M467.106,91.087c-5.878,0-11,4.765-11,10.643v17.029v15.116h22v-15.116V101.73
								C478.106,95.852,472.985,91.087,467.106,91.087z"/>
							<g>
								<path fill="#6FDAF1" d="M477.703,104.604v-2.874c0-5.878-4.765-10.643-10.643-10.643s-10.643,4.766-10.643,10.643v24.16
									L477.703,104.604z"/>
							</g>
						</g>
					</g>
					<g>
						<defs>
							<rect id="SVGID_55_" x="418.966" y="105.631" width="19.206" height="26.888"/>
						</defs>
						<clipPath id="SVGID_26_">
							<use xlink:href="#SVGID_55_"  overflow="visible"/>
						</clipPath>
						<g clip-path="url(#SVGID_26_)">
							<path fill="#40C9E7" d="M428.606,91.087c-5.878,0-10.5,4.765-10.5,10.643v17.029v15.116h21v-15.116V101.73
								C439.106,95.852,434.485,91.087,428.606,91.087z"/>
							<g>
								<path fill="#6FDAF1" d="M439.291,104.604v-2.874c0-5.878-4.765-10.643-10.643-10.643s-10.643,4.766-10.643,10.643v24.16
									L439.291,104.604z"/>
							</g>
						</g>
					</g>
					<g>
						<defs>
							<rect id="SVGID_57_" x="457.377" y="57.617" width="19.206" height="26.888"/>
						</defs>
						<clipPath id="SVGID_28_">
							<use xlink:href="#SVGID_57_"  overflow="visible"/>
						</clipPath>
						<g clip-path="url(#SVGID_28_)">
							<path fill="#40C9E7" d="M467.106,43.073c-5.878,0-11,4.765-11,10.643v17.029v14.13h22v-14.13V53.716
								C478.106,47.838,472.985,43.073,467.106,43.073z"/>
							<g>
								<path fill="#6FDAF1" d="M477.703,56.59v-2.874c0-5.878-4.765-10.643-10.643-10.643s-10.643,4.766-10.643,10.643v24.16
									L477.703,56.59z"/>
							</g>
						</g>
					</g>
					<g>
						<defs>
							<rect id="SVGID_59_" x="418.966" y="57.617" width="19.206" height="26.888"/>
						</defs>
						<clipPath id="SVGID_30_">
							<use xlink:href="#SVGID_59_"  overflow="visible"/>
						</clipPath>
						<g clip-path="url(#SVGID_30_)">
							<path fill="#40C9E7" d="M428.606,43.073c-5.878,0-10.5,4.765-10.5,10.643v17.029v14.13h21v-14.13V53.716
								C439.106,47.838,434.485,43.073,428.606,43.073z"/>
							<g>
								<path fill="#6FDAF1" d="M439.291,56.59v-2.874c0-5.878-4.765-10.643-10.643-10.643s-10.643,4.766-10.643,10.643v24.16
									L439.291,56.59z"/>
							</g>
						</g>
					</g>
				</g>
			</g>
		</g>
	</g>
</g>
</svg>
