<?xml version="1.0" encoding="utf-8"?>
<!-- Generator: Adobe Illustrator 18.1.1, SVG Export Plug-In . SVG Version: 6.00 Build 0)  -->
<!DOCTYPE svg PUBLIC "-//W3C//DTD SVG 1.1//EN" "http://www.w3.org/Graphics/SVG/1.1/DTD/svg11.dtd">
<svg version="1.1" id="Layer_1" xmlns="http://www.w3.org/2000/svg" xmlns:xlink="http://www.w3.org/1999/xlink" x="0px" y="0px"
	 viewBox="0 0 170 170" enable-background="new 0 0 170 170" xml:space="preserve">
<g>
	<g>
		<circle fill="#FABC3D" cx="85" cy="85" r="85"/>
	</g>
	<g>
		<g>
			<g>
				<g>
					<path fill="#F0F1F1" d="M126.629,37.559c-1.13-1.23-2.737-2.013-4.538-2.013H47.909c-3.414,0-6.182,2.768-6.182,6.182v86.545
						c0,3.414,2.768,6.182,6.182,6.182h74.182c3.414,0,6.182-2.768,6.182-6.182V41.727C128.273,40.115,127.64,38.659,126.629,37.559
						z"/>
				</g>
			</g>
		</g>
		<g>
			<g>
				<g>
					<path fill="#FFFFFF" d="M47.909,44.818c0-1.707,1.384-3.091,3.091-3.091h18.545c1.707,0,3.091,1.384,3.091,3.091v46.734
						l6.855-6.856c-0.397-0.279-0.673-0.718-0.673-1.241V68c0-0.853,0.692-1.545,1.545-1.545h15.455
						c0.523,0,0.962,0.276,1.242,0.673l7.159-7.159c-0.397-0.279-0.673-0.718-0.673-1.241V43.273c0-0.853,0.692-1.545,1.545-1.545
						h15.455c0.523,0,0.962,0.276,1.242,0.673l4.842-4.842c-1.13-1.23-2.737-2.013-4.538-2.013H47.909
						c-3.414,0-6.182,2.768-6.182,6.182v80.734l6.182-6.182V44.818z M78.818,43.273c0-0.853,0.692-1.545,1.545-1.545h15.455
						c0.854,0,1.545,0.692,1.545,1.545v15.455c0,0.853-0.692,1.545-1.545,1.545H80.363c-0.854,0-1.545-0.692-1.545-1.545V43.273z"/>
				</g>
			</g>
		</g>
		<g>
			<g>
				<g>
					<path fill="#F4D0A1" d="M69.545,41.727H51c-1.707,0-3.091,1.384-3.091,3.091v71.461v8.903c0,1.707,1.384,3.091,3.091,3.091
						h18.545c1.707,0,3.091-1.384,3.091-3.091v-33.63V44.818C72.636,43.111,71.252,41.727,69.545,41.727z"/>
				</g>
			</g>
		</g>
		<g>
			<g>
				<g>
					<path fill="#F8E1C2" d="M69.545,41.727H51c-1.707,0-3.091,1.384-3.091,3.091v71.461l24.727-24.727V44.818
						C72.636,43.111,71.252,41.727,69.545,41.727z"/>
				</g>
			</g>
		</g>
		<g>
			<g>
				<g>
					<path fill="#F79392" d="M80.363,60.273h15.455c0.854,0,1.545-0.692,1.545-1.545V43.273c0-0.853-0.692-1.545-1.545-1.545H80.363
						c-0.854,0-1.545,0.692-1.545,1.545v15.455C78.818,59.581,79.51,60.273,80.363,60.273z"/>
				</g>
			</g>
		</g>
		<g>
			<g>
				<g>
					<path fill="#FACB1B" d="M121.787,42.4c-0.28-0.397-0.719-0.673-1.242-0.673h-15.455c-0.854,0-1.545,0.692-1.545,1.545v15.455
						c0,0.523,0.276,0.962,0.673,1.241c0.251,0.177,0.541,0.304,0.872,0.304h15.455c0.854,0,1.545-0.692,1.545-1.545V43.273
						C122.091,42.942,121.964,42.652,121.787,42.4z"/>
				</g>
			</g>
		</g>
		<g>
			<g>
				<g>
					<path fill="#FBE158" d="M120.545,41.727h-15.455c-0.854,0-1.545,0.692-1.545,1.545v15.455c0,0.523,0.276,0.962,0.673,1.241
						L121.787,42.4C121.507,42.003,121.068,41.727,120.545,41.727z"/>
				</g>
			</g>
		</g>
		<g>
			<g>
				<g>
					<path fill="#12B2A0" d="M97.06,67.128c-0.28-0.397-0.719-0.673-1.242-0.673H80.363c-0.854,0-1.545,0.692-1.545,1.545v15.455
						c0,0.523,0.276,0.962,0.673,1.241C79.743,84.873,80.033,85,80.363,85h15.455c0.854,0,1.545-0.692,1.545-1.545V68
						C97.363,67.669,97.237,67.38,97.06,67.128z"/>
				</g>
			</g>
		</g>
		<g>
			<g>
				<g>
					<path fill="#47C4B7" d="M95.818,66.455H80.363c-0.854,0-1.545,0.692-1.545,1.545v15.455c0,0.523,0.276,0.962,0.673,1.241
						L97.06,67.128C96.78,66.731,96.341,66.455,95.818,66.455z"/>
				</g>
			</g>
		</g>
		<g>
			<g>
				<g>
					<path fill="#84462D" d="M60.273,66.455h-6.182v6.182l2.9,46.401c0.107,1.717,1.531,3.054,3.251,3.054h0.031h0.031
						c1.72,0,3.144-1.337,3.251-3.054l2.9-46.401v-6.182H60.273z"/>
				</g>
			</g>
		</g>
		<g>
			<g>
				<g>
					<path fill="#9C6144" d="M54.091,66.455v6.182l2.9,46.401c0.107,1.717,1.531,3.054,3.251,3.054h0.031V66.455H54.091z"/>
				</g>
			</g>
		</g>
		<g>
			<g>
				<g>
					<path fill="#47C4B7" d="M122.091,83.455c0,0.854-0.692,1.545-1.545,1.545h-15.455c-0.854,0-1.545-0.692-1.545-1.545V68
						c0-0.854,0.692-1.545,1.545-1.545h15.455c0.854,0,1.545,0.692,1.545,1.545V83.455z"/>
				</g>
			</g>
		</g>
		<g>
			<g>
				<g>
					<path fill="#40C9E7" d="M97.363,108.182c0,0.854-0.692,1.545-1.545,1.545H80.363c-0.854,0-1.545-0.692-1.545-1.545V92.727
						c0-0.854,0.692-1.545,1.545-1.545h15.455c0.854,0,1.545,0.692,1.545,1.545V108.182z"/>
				</g>
			</g>
		</g>
		<g>
			<g>
				<g>
					<path fill="#40C9E7" d="M122.091,108.182c0,0.854-0.692,1.545-1.545,1.545h-15.455c-0.854,0-1.545-0.692-1.545-1.545V92.727
						c0-0.854,0.692-1.545,1.545-1.545h15.455c0.854,0,1.545,0.692,1.545,1.545V108.182z"/>
				</g>
			</g>
		</g>
		<g>
			<g>
				<g>
					<path fill="#F4D0A1" d="M122.091,126.727c0,0.854-0.692,1.545-1.545,1.545H80.363c-0.854,0-1.545-0.692-1.545-1.545v-9.273
						c0-0.854,0.692-1.545,1.545-1.545h40.182c0.854,0,1.545,0.692,1.545,1.545V126.727z"/>
				</g>
			</g>
		</g>
		<g>
			<g>
				<g>
					<path fill="#3E3E3F" d="M60.273,46.364L60.273,46.364c0,0-7.727,8.788-7.727,13.909c0,2.861,1.103,4.907,2.799,6.182h4.928
						h4.928C66.897,65.179,68,63.134,68,60.273C68,55.152,60.274,46.365,60.273,46.364z"/>
				</g>
			</g>
		</g>
		<g>
			<g>
				<g>
					<path fill="#5B5C5F" d="M52.545,60.273c0,2.861,1.103,4.907,2.799,6.182h4.928V46.364h0
						C60.273,46.364,52.545,55.152,52.545,60.273z"/>
				</g>
			</g>
		</g>
		<g>
			<g>
				<g>
					<polygon fill="#F3B607" points="60.273,66.455 54.091,66.455 54.091,72.636 60.273,72.636 66.454,72.636 66.454,66.455 					
						"/>
				</g>
			</g>
		</g>
		<g>
			<g>
				<g>
					<polygon fill="#FACB1B" points="55.345,66.455 54.091,66.455 54.091,72.636 60.273,72.636 60.273,66.455 					"/>
				</g>
			</g>
		</g>
	</g>
</g>
</svg>
