<?xml version="1.0" encoding="utf-8"?>
<!-- Generator: Adobe Illustrator 18.1.1, SVG Export Plug-In . SVG Version: 6.00 Build 0)  -->
<!DOCTYPE svg PUBLIC "-//W3C//DTD SVG 1.1//EN" "http://www.w3.org/Graphics/SVG/1.1/DTD/svg11.dtd">
<svg version="1.1" id="Layer_1" xmlns="http://www.w3.org/2000/svg" xmlns:xlink="http://www.w3.org/1999/xlink" x="0px" y="0px"
	 viewBox="0 0 225 225" enable-background="new 0 0 225 225" xml:space="preserve">
<g>
	<g>
		<circle fill="#25B7D3" cx="112.5" cy="112.5" r="112.5"/>
	</g>
	<g>
		<g>
			<path fill="#3E3E3F" d="M177.955,150.806c0,3.286-2.664,5.95-5.95,5.95H52.996c-3.286,0-5.95-2.664-5.95-5.95V67.5
				c0-3.286,2.664-5.95,5.95-5.95h119.008c3.286,0,5.95,2.664,5.95,5.95V150.806z"/>
		</g>
		<g>
			<rect x="94.649" y="156.756" fill="#E2E4E5" width="35.703" height="15.248"/>
		</g>
		<g>
			<path fill="#F0F1F1" d="M142.252,174.98c0,1.643-1.332,2.975-2.975,2.975H85.723c-1.643,0-2.975-1.332-2.975-2.975
				c0-1.643,1.332-2.975,2.975-2.975h53.554C140.92,172.004,142.252,173.336,142.252,174.98z"/>
		</g>
		<g>
			<path fill="#FFFFFF" d="M177.955,150.806v-17.851H47.045v17.851c0,3.286,2.664,5.95,5.95,5.95h119.008
				C175.29,156.756,177.955,154.092,177.955,150.806z"/>
		</g>
		<g>
			<path fill="#CFD3D4" d="M112.5,153.223c-4.409,0-7.996-3.587-7.996-7.996c0-4.409,3.587-7.995,7.996-7.995
				s7.996,3.586,7.996,7.995C120.496,149.636,116.909,153.223,112.5,153.223z M112.5,141.323c-2.153,0-3.905,1.752-3.905,3.904
				c0,2.153,1.752,3.905,3.905,3.905s3.905-1.752,3.905-3.905C116.405,143.075,114.653,141.323,112.5,141.323z"/>
		</g>
		<g>
			<path fill="#5B5C5F" d="M47.045,67.314v65.455h40.344l71.405-71.405H52.996C49.71,61.364,47.045,64.028,47.045,67.314z"/>
		</g>
	</g>
</g>
</svg>
