<?xml version="1.0" encoding="utf-8"?>
<!-- Generator: Adobe Illustrator 18.1.1, SVG Export Plug-In . SVG Version: 6.00 Build 0)  -->
<!DOCTYPE svg PUBLIC "-//W3C//DTD SVG 1.1//EN" "http://www.w3.org/Graphics/SVG/1.1/DTD/svg11.dtd">
<svg version="1.1" id="Layer_1" xmlns="http://www.w3.org/2000/svg" xmlns:xlink="http://www.w3.org/1999/xlink" x="0px" y="0px"
	 viewBox="0 0 170 170" enable-background="new 0 0 170 170" xml:space="preserve">
<g>
	<g>
		<circle fill="#FABC3D" cx="85" cy="85" r="85"/>
	</g>
	<g>
		<g>
			<path fill="#84462D" d="M125.182,52.545c0-1.707-1.384-3.091-3.091-3.091H47.909c-1.707,0-3.091,1.384-3.091,3.091v78.818
				c0,1.707,1.384,3.091,3.091,3.091h74.182c1.707,0,3.091-1.384,3.091-3.091V52.545z"/>
		</g>
		<g>
			<rect x="51" y="55.636" fill="#FFFFFF" width="68" height="72.636"/>
		</g>
		<g>
			<path fill="#FACB1B" d="M100.454,44.818h-6.182c0-5.121-4.152-9.273-9.273-9.273s-9.273,4.152-9.273,9.273h-6.182
				c-1.707,0-3.091,1.384-3.091,3.091v12.364c0,1.707,1.384,3.091,3.091,3.091h30.909c1.707,0,3.091-1.384,3.091-3.091V47.909
				C103.545,46.202,102.161,44.818,100.454,44.818z M85,38.636c1.707,0,3.091,1.384,3.091,3.091S86.707,44.818,85,44.818
				s-3.091-1.384-3.091-3.091S83.293,38.636,85,38.636z"/>
		</g>
		<g>
			<g>
				<path fill="#DF2C2C" d="M92.065,121.318c-5.113,0-9.273-4.16-9.273-9.273c0-5.113,4.159-9.273,9.273-9.273
					s9.273,4.16,9.273,9.273C101.337,117.158,97.178,121.318,92.065,121.318z M92.065,107.409c-2.557,0-4.636,2.08-4.636,4.636
					c0,2.557,2.08,4.636,4.636,4.636s4.636-2.08,4.636-4.636C96.701,109.489,94.621,107.409,92.065,107.409z"/>
			</g>
		</g>
		<g>
			<polygon fill="#5B5C5F" points="111.492,83.058 108.688,80.254 104.483,84.46 100.277,80.254 97.473,83.058 101.679,87.263 
				97.473,91.469 100.277,94.273 104.483,90.067 108.688,94.273 111.492,91.469 107.287,87.263 			"/>
		</g>
		<g>
			<polygon fill="#5B5C5F" points="74.291,73.895 71.488,71.091 67.282,75.296 62.967,70.981 60.163,73.785 64.478,78.101 
				60.273,82.306 63.076,85.11 67.282,80.904 71.378,85 74.182,82.196 70.086,78.101 			"/>
		</g>
		<g>
			<path fill="#DF2C2C" d="M91.44,80.364l-12.512,1.463l3.448,3.628c-4.695,2.788-16.584,11.698-16.584,30.454
				c0,1.28,1.038,2.318,2.318,2.318s2.318-1.038,2.318-2.318c0-18.094,12.583-25.605,15.241-26.989l3.672,3.864L91.44,80.364z"/>
		</g>
		<g>
			<path fill="#FBE158" d="M100.454,44.818h-6.182c0-5.121-4.152-9.273-9.273-9.273s-9.273,4.152-9.273,9.273h-6.182
				c-1.707,0-3.091,1.384-3.091,3.091v6.182h37.091v-6.182C103.545,46.202,102.161,44.818,100.454,44.818z M85,44.818
				c-1.707,0-3.091-1.384-3.091-3.091s1.384-3.091,3.091-3.091s3.091,1.384,3.091,3.091S86.707,44.818,85,44.818z"/>
		</g>
	</g>
</g>
</svg>
