<?xml version="1.0" encoding="utf-8"?>
<!-- Generator: Adobe Illustrator 18.1.1, SVG Export Plug-In . SVG Version: 6.00 Build 0)  -->
<!DOCTYPE svg PUBLIC "-//W3C//DTD SVG 1.1//EN" "http://www.w3.org/Graphics/SVG/1.1/DTD/svg11.dtd">
<svg version="1.1" id="Layer_1" xmlns="http://www.w3.org/2000/svg" xmlns:xlink="http://www.w3.org/1999/xlink" x="0px" y="0px"
	 viewBox="0 0 170 170" enable-background="new 0 0 170 170" xml:space="preserve">
<g>
	<g>
		<circle fill="#FABC3D" cx="85" cy="85" r="85"/>
	</g>
	<g>
		<g>
			<g>
				<path fill="#FFFFFF" d="M94.154,41.078c-0.553-3.369-3.732-5.652-7.101-5.099L26.051,45.99
					c-3.369,0.553-5.652,3.732-5.099,7.101l14.015,85.403c0.553,3.369,3.732,5.652,7.101,5.099l61.002-10.011
					c3.369-0.553,5.652-3.732,5.099-7.101L94.154,41.078z"/>
			</g>
			<g>
				
					<rect x="33.151" y="49.645" transform="matrix(0.9868 -0.1619 0.1619 0.9868 -13.2005 11.5187)" fill="#3E3E3F" width="61.818" height="74.182"/>
			</g>
			<g>
				<circle fill="#CFD3D4" cx="71.318" cy="130.963" r="3.091"/>
			</g>
			<g>
				<circle fill="#3E3E3F" cx="57.303" cy="45.56" r="1.545"/>
			</g>
			<g>
				<polygon fill="#5B5C5F" points="37.076,113.09 85.507,45.643 27.568,55.151 				"/>
			</g>
		</g>
		<g>
			<g>
				<path fill="#E5E5E6" d="M135.464,134.183c-0.898,5.042-5.714,8.401-10.755,7.503l-36.516-6.505
					c-5.042-0.898-8.401-5.714-7.503-10.755l14.095-79.118c0.898-5.042,5.714-8.401,10.755-7.503l36.516,6.505
					c5.042,0.898,8.401,5.714,7.503,10.755L135.464,134.183z"/>
			</g>
			<g>
				
					<rect x="90.397" y="58.836" transform="matrix(0.9845 0.1754 -0.1754 0.9845 17.5251 -18.8006)" fill="#3E3E3F" width="49.455" height="61.818"/>
			</g>
			<g>
				<circle fill="#CFD3D4" cx="111.25" cy="49.81" r="1.545"/>
			</g>
			<g>
				<path fill="#CFD3D4" d="M134.073,53.876c-0.15,0.84-0.952,1.4-1.793,1.25l-15.215-2.711c-0.84-0.15-1.4-0.952-1.25-1.793
					c0.15-0.84,0.952-1.4,1.793-1.25l15.215,2.711C133.663,52.233,134.222,53.036,134.073,53.876z"/>
			</g>
			<g>
				<circle fill="#CFD3D4" cx="108.077" cy="129.304" r="6.182"/>
			</g>
			<g>
				
					<rect x="104.986" y="126.213" transform="matrix(0.9845 0.1754 -0.1754 0.9845 24.3541 -16.9513)" fill="#FFFFFF" width="6.182" height="6.182"/>
			</g>
			<g>
				<polygon fill="#5B5C5F" points="143.622,70.767 144.889,63.652 96.201,54.978 86.26,110.781 				"/>
			</g>
		</g>
	</g>
</g>
</svg>
