<?xml version="1.0" encoding="utf-8"?>
<!-- Generator: Adobe Illustrator 18.1.1, SVG Export Plug-In . SVG Version: 6.00 Build 0)  -->
<!DOCTYPE svg PUBLIC "-//W3C//DTD SVG 1.1//EN" "http://www.w3.org/Graphics/SVG/1.1/DTD/svg11.dtd">
<svg version="1.1" id="Layer_1" xmlns="http://www.w3.org/2000/svg" xmlns:xlink="http://www.w3.org/1999/xlink" x="0px" y="0px"
	 viewBox="0 0 225 225" enable-background="new 0 0 225 225" xml:space="preserve">
<g>
	<g>
		<circle fill="#E04F5F" cx="112.5" cy="112.5" r="112.5"/>
	</g>
	<g>
		<g>
			<path fill="#FFFFFF" d="M47.045,54.9c0-4.338,3.517-7.855,7.855-7.855h57.6l32.727,27.491V170.1c0,4.338-3.517,7.855-7.855,7.855
				H54.9c-4.338,0-7.855-3.517-7.855-7.855V54.9z"/>
		</g>
		<g>
			<path fill="#F0F1F1" d="M112.5,47.046v19.636c0,4.338,3.517,7.855,7.855,7.855h24.873L112.5,47.046z"/>
		</g>
		<g>
			<polygon fill="#F4D0A1" points="157.5,84.886 167.727,63.409 177.955,84.886 177.955,163.636 157.5,163.636 			"/>
		</g>
		<g>
			<polygon fill="#EDBC7C" points="177.955,96.136 177.955,84.886 167.727,63.409 167.727,96.136 			"/>
		</g>
		<g>
			<path fill="#F79392" d="M177.955,171.818c0,3.389-2.747,6.136-6.136,6.136h-8.182c-3.389,0-6.136-2.747-6.136-6.136v-4.091
				h20.455V171.818z"/>
		</g>
		<g>
			<path fill="#E2E4E5" d="M126.818,92.046c0,1.125-0.92,2.045-2.045,2.045H94.091c-1.125,0-2.045-0.92-2.045-2.045l0,0
				c0-1.125,0.92-2.045,2.045-2.045h30.682C125.898,90,126.818,90.921,126.818,92.046L126.818,92.046z"/>
		</g>
		<g>
			<path fill="#E2E4E5" d="M114.545,102.273c0,1.125-0.92,2.045-2.045,2.045H94.091c-1.125,0-2.045-0.92-2.045-2.045l0,0
				c0-1.125,0.92-2.045,2.045-2.045H112.5C113.625,100.227,114.545,101.148,114.545,102.273L114.545,102.273z"/>
		</g>
		<g>
			<path fill="#E2E4E5" d="M126.818,118.636c0,1.125-0.92,2.045-2.045,2.045H94.091c-1.125,0-2.045-0.92-2.045-2.045l0,0
				c0-1.125,0.92-2.045,2.045-2.045h30.682C125.898,116.591,126.818,117.511,126.818,118.636L126.818,118.636z"/>
		</g>
		<g>
			<path fill="#E2E4E5" d="M114.545,128.864c0,1.125-0.92,2.045-2.045,2.045H94.091c-1.125,0-2.045-0.92-2.045-2.045l0,0
				c0-1.125,0.92-2.045,2.045-2.045H112.5C113.625,126.818,114.545,127.739,114.545,128.864L114.545,128.864z"/>
		</g>
		<g>
			<path fill="#E2E4E5" d="M126.818,145.227c0,1.125-0.92,2.045-2.045,2.045H94.091c-1.125,0-2.045-0.92-2.045-2.045l0,0
				c0-1.125,0.92-2.045,2.045-2.045h30.682C125.898,143.182,126.818,144.102,126.818,145.227L126.818,145.227z"/>
		</g>
		<g>
			<path fill="#E2E4E5" d="M114.545,155.455c0,1.125-0.92,2.045-2.045,2.045H94.091c-1.125,0-2.045-0.92-2.045-2.045l0,0
				c0-1.125,0.92-2.045,2.045-2.045H112.5C113.625,153.409,114.545,154.33,114.545,155.455L114.545,155.455z"/>
		</g>
		<g>
			<g>
				<path fill="#12B2A0" d="M71.729,106.364l-7.721-7.72c-0.799-0.799-0.799-2.094,0-2.892c0.799-0.799,2.094-0.799,2.893,0
					l4.553,4.552l8.793-10.552c0.723-0.868,2.013-0.985,2.881-0.262c0.868,0.724,0.985,2.013,0.262,2.881L71.729,106.364z"/>
			</g>
		</g>
		<g>
			<g>
				<path fill="#12B2A0" d="M71.729,132.955l-7.721-7.72c-0.799-0.799-0.799-2.094,0-2.892c0.799-0.799,2.094-0.799,2.893,0
					l4.553,4.552l8.793-10.552c0.723-0.868,2.013-0.985,2.881-0.262c0.868,0.724,0.985,2.013,0.262,2.881L71.729,132.955z"/>
			</g>
		</g>
		<g>
			<g>
				<path fill="#12B2A0" d="M71.729,159.546l-7.721-7.72c-0.799-0.799-0.799-2.094,0-2.892c0.799-0.799,2.094-0.799,2.893,0
					l4.553,4.552l8.793-10.552c0.723-0.868,2.013-0.985,2.881-0.262c0.868,0.724,0.985,2.013,0.262,2.881L71.729,159.546z"/>
			</g>
		</g>
		<g>
			<rect x="157.5" y="161.591" fill="#FACB1B" width="20.455" height="6.136"/>
		</g>
		<g>
			<rect x="157.5" y="163.636" fill="#FBE158" width="10.227" height="4.091"/>
		</g>
		<g>
			<path fill="#3E3E3F" d="M167.754,63.377l-3.798,7.976c1.048,1.387,2.356,2.251,3.798,2.251c1.442,0,2.751-0.864,3.798-2.251
				L167.754,63.377z"/>
		</g>
		<g>
			<path fill="#0484AB" d="M172.841,87.955c-2.361,0-4.348-1.6-4.936-3.774c-0.054-0.198-0.301-0.198-0.354,0
				c-0.588,2.175-2.575,3.774-4.936,3.774c-2.153,0-3.994-1.33-4.749-3.213c-0.08-0.199-0.365-0.145-0.365,0.07v78.825h20.455
				V84.812c0-0.215-0.285-0.269-0.365-0.07C176.835,86.625,174.994,87.955,172.841,87.955z"/>
		</g>
		<g>
			<path fill="#21B2D1" d="M157.5,163.636V84.873c0-0.228,0.301-0.285,0.388-0.074c0.768,1.853,2.595,3.156,4.726,3.156
				c2.371,0,4.365-1.613,4.944-3.802c0.028-0.107,0.17-0.094,0.17,0.017v79.467H157.5z"/>
		</g>
		<g>
			<path fill="#F7B4B4" d="M157.5,167.727v4.091c0,3.389,2.748,6.136,6.136,6.136h4.091v-10.227H157.5z"/>
		</g>
	</g>
</g>
</svg>
