<?xml version="1.0" encoding="utf-8"?>
<!-- Generator: Adobe Illustrator 18.1.1, SVG Export Plug-In . SVG Version: 6.00 Build 0)  -->
<!DOCTYPE svg PUBLIC "-//W3C//DTD SVG 1.1//EN" "http://www.w3.org/Graphics/SVG/1.1/DTD/svg11.dtd">
<svg version="1.1" id="Layer_1" xmlns="http://www.w3.org/2000/svg" xmlns:xlink="http://www.w3.org/1999/xlink" x="0px" y="0px"
	 viewBox="0 0 170.227 170.227" enable-background="new 0 0 170.227 170.227" xml:space="preserve">
<g>
	<g>
		<circle fill="#FABC3D" cx="85.113" cy="85.114" r="85.114"/>
	</g>
	<g>
		<g>
			<g>
				<g>
					<path fill="#3E3E3F" d="M54.163,94.399c0,1.709,1.386,3.095,3.095,3.095h46.426v-6.19H57.258
						C55.549,91.304,54.163,92.689,54.163,94.399z"/>
				</g>
			</g>
		</g>
		<g>
			<g>
				<g>
					<path fill="#E2E4E5" d="M131.539,122.254h-3.095l-11.34-16.275c5.048-3.321,8.841-8.185,10.919-14.262
						c4.039-11.809,0.812-25.871-8.03-34.992c-7.286-7.515-17.455-10.78-28.69-9.434v-5.509h-18.57v37.14h18.57V61.356
						c7.676-1.398,14.084,0.314,18.69,5.065c5.206,5.371,7.201,13.92,4.852,20.79c-0.844,2.468-2.5,5.338-5.706,7.337l-0.524-0.753
						c-1.155-1.567-2.985-2.492-4.931-2.492c-1.946,0-3.777,0.925-4.931,2.492l-19.829,28.459H44.878
						c-1.709,0-3.095,1.386-3.095,3.095v6.19c0,1.709,1.386,3.095,3.095,3.095h86.661c1.709,0,3.095-1.386,3.095-3.095v-6.19
						C134.634,123.64,133.248,122.254,131.539,122.254z"/>
				</g>
			</g>
		</g>
		<g>
			<g>
				<g>
					<rect x="77.376" y="37.141" fill="#3E3E3F" width="9.285" height="4.643"/>
				</g>
			</g>
		</g>
		<g>
			<g>
				<g>
					<rect x="75.828" y="78.924" fill="#3E3E3F" width="12.38" height="6.19"/>
				</g>
			</g>
		</g>
		<g>
			<g>
				<path fill="#F0F1F1" d="M117.104,105.98c5.048-3.321,8.841-8.185,10.919-14.262c4.039-11.809,0.812-25.871-8.03-34.992
					c-7.286-7.515-17.455-10.78-28.69-9.434v14.064c7.676-1.398,14.085,0.314,18.69,5.064c5.206,5.371,7.201,13.92,4.852,20.79
					c-0.844,2.468-2.5,5.338-5.706,7.337l-0.524-0.753c-1.155-1.567-2.985-2.492-4.931-2.492s-3.777,0.925-4.931,2.492
					l-19.829,28.458h49.521L117.104,105.98z"/>
			</g>
		</g>
		<g>
			<g>
				<g>
					<path fill="#FFFFFF" d="M108.615,93.795c-1.155-1.567-2.985-2.492-4.931-2.492c-1.946,0-3.777,0.925-4.931,2.492
						l-19.829,28.459h13.76l21.076-21.076L108.615,93.795z"/>
				</g>
			</g>
		</g>
		<g>
			<g>
				<g>
					<rect x="75.828" y="78.924" fill="#5B5C5F" width="6.19" height="6.19"/>
				</g>
			</g>
		</g>
		<g>
			<g>
				<g>
					<rect x="77.376" y="37.141" fill="#5B5C5F" width="4.643" height="4.643"/>
				</g>
			</g>
		</g>
		<g>
			<g>
				<g>
					<rect x="72.733" y="41.783" fill="#FFFFFF" width="9.285" height="37.14"/>
				</g>
			</g>
		</g>
		<g>
			<g>
				<g>
					<circle fill="#5B5C5F" cx="103.684" cy="100.589" r="3.095"/>
				</g>
			</g>
		</g>
	</g>
</g>
</svg>
