<?xml version="1.0" encoding="utf-8"?>
<!-- Generator: Adobe Illustrator 18.1.1, SVG Export Plug-In . SVG Version: 6.00 Build 0)  -->
<!DOCTYPE svg PUBLIC "-//W3C//DTD SVG 1.1//EN" "http://www.w3.org/Graphics/SVG/1.1/DTD/svg11.dtd">
<svg version="1.1" id="Layer_1" xmlns="http://www.w3.org/2000/svg" xmlns:xlink="http://www.w3.org/1999/xlink" x="0px" y="0px"
	 viewBox="0 0 354 354" enable-background="new 0 0 354 354" xml:space="preserve">
<g>
	<g>
		<g>
			<circle fill="#29E2B0" cx="177" cy="177" r="177"/>
		</g>
	</g>
	<g>
		<g>
			<g>
				<g>
					<polygon fill="#E2E4E5" points="215.618,218.827 209.182,215.609 144.818,215.609 138.382,218.827 177,279.982 					"/>
				</g>
			</g>
		</g>
		<g>
			<g>
				<path fill="#F8E1C2" d="M225.273,144.818c-3.218,0-3.218,3.576-3.218,3.576v-3.576c-0.006-3.427-0.061-6.714-0.217-9.856
					C208.83,122.296,177,122.291,177,122.291s-31.83,0.005-44.838,12.672c-0.156,3.141-0.21,6.429-0.217,9.856v25.736l12.873,32.182
					l16.43,12.859c1.831,2.057,4.453,3.232,7.208,3.232H177h8.544c2.754,0,5.377-1.176,7.209-3.232l16.429-12.859l10.319-25.799
					c9.125-0.658,12.208-14.498,12.208-24.968C231.709,148.395,228.491,144.818,225.273,144.818z"/>
			</g>
		</g>
		<g>
			<g>
				<path fill="#FCF1E2" d="M131.945,144.818v3.576c0,0,0-3.576-3.218-3.576c-3.218,0-6.436,3.576-6.436,7.151
					c0,10.47,3.083,24.309,12.208,24.968l10.319,25.799l16.43,12.859c1.831,2.057,4.453,3.232,7.208,3.232H177v-96.536
					c0,0-31.83,0.005-44.838,12.672C132.007,138.104,131.952,141.391,131.945,144.818z"/>
			</g>
		</g>
		<g>
			<g>
				<g>
					<path fill="#F79392" d="M160.909,183.427h32.182c0,0,0,9.655-16.091,9.655S160.909,183.427,160.909,183.427z"/>
				</g>
			</g>
		</g>
		<g>
			<g>
				<g>
					<path fill="#3E3E3F" d="M196.309,152.29c3.833,0,7.234,0.855,9.593,2.183c0.228-1.83-0.553-3.715-2.408-5.118
						c-3.316-2.513-8.696-2.513-12.013,0c-1.495,1.133-2.283,2.578-2.423,4.056C191.124,152.705,193.619,152.29,196.309,152.29z"/>
				</g>
			</g>
		</g>
		<g>
			<g>
				<g>
					<path fill="#3E3E3F" d="M157.668,152.29c-3.833,0-7.234,0.855-9.593,2.183c-0.228-1.83,0.553-3.715,2.407-5.118
						c3.316-2.513,8.696-2.513,12.013,0c1.495,1.133,2.283,2.578,2.423,4.056C162.854,152.705,160.358,152.29,157.668,152.29z"/>
				</g>
			</g>
		</g>
		<g>
			<g>
				<path fill="#F4D0A1" d="M185.544,218.827H177h-8.544c-2.754,0-5.377-1.176-7.208-3.232l-16.43-12.859v14.482
					c0,0,0,24.136,32.182,24.136s32.182-24.136,32.182-24.136v-14.482l-16.429,12.859
					C190.921,217.652,188.298,218.827,185.544,218.827z"/>
			</g>
		</g>
		<g>
			<g>
				<g>
					<path fill="#3E3E3F" d="M177,122.291c0,0-2.44,0.002-6.235,0.269c0,4.024,0,13.654,0,18.102
						c11.967,0,19.218-8.638,23.41-16.845C184.756,122.294,177,122.291,177,122.291z"/>
				</g>
			</g>
			<g>
				<g>
					<path fill="#3E3E3F" d="M147.775,126.578c-6.103,1.898-11.878,4.634-15.83,8.586c0,11.397,7.475,16.895,7.475,16.895
						C138.476,142.546,138.423,136.349,147.775,126.578z"/>
				</g>
			</g>
			<g>
				<g>
					<path fill="#3E3E3F" d="M150.819,125.707c0,3.069,0,9.007,0,14.955c9.221,0,16.572-13.047,19.045-18.035
						C164.83,123.019,157.777,123.869,150.819,125.707z"/>
				</g>
			</g>
			<g>
				<g>
					<path fill="#3E3E3F" d="M213.506,129.387c0,1.246,0,14.529,0,22.672c8.008,0,8.514-14.999,8.545-16.897
						C219.732,132.841,216.779,130.946,213.506,129.387z"/>
				</g>
			</g>
			<g>
				<g>
					<path fill="#3E3E3F" d="M199.259,124.771c0,5.454,0,11.349,0,15.891c10.794,0,13.918-10.206,14.218-11.29
						C209.078,127.282,204.1,125.808,199.259,124.771z"/>
				</g>
			</g>
		</g>
		<g>
			<g>
				<path fill="#F8E1C2" d="M161.249,215.595l-16.43-12.859v14.482c0,0,0,24.136,32.182,24.136v-22.527h-8.544
					C165.702,218.827,163.079,217.652,161.249,215.595z"/>
			</g>
		</g>
		<g>
			<g>
				<g>
					<path fill="#FA5655" d="M110.999,171.997v-63.139c-2.242-0.8-4.403-1.586-6.436-2.343v65.482
						c-8.4,5.534-3.218,22.045-3.218,30.749c3.202,0,4.97,0,5.927,0c0.206,0,0.374,0,0.509,0c0.42,0,0.542,0,0.509,0
						c0.957,0,2.725,0,5.927,0C114.217,194.042,119.4,177.531,110.999,171.997z"/>
				</g>
			</g>
			<g>
				<g>
					<path fill="#3E3E3F" d="M263.891,99.764c0-3.218-80.455-25.745-86.891-25.745c-6.436,0-86.891,22.527-86.891,25.745
						c0,2.013,23.918,10.319,41.836,16.261c0,5.549,0,12.125,0,19.139C144.818,122.291,177,122.291,177,122.291
						s32.182,0,45.055,12.873c0-7.015,0-13.591,0-19.139C239.973,110.083,263.891,101.777,263.891,99.764z"/>
				</g>
			</g>
		</g>
		<g>
			<g>
				<g>
					<polygon fill="#FFFFFF" points="215.505,219.025 215.618,218.836 209.182,215.618 177.049,231.648 195.692,250.396 					"/>
				</g>
			</g>
		</g>
		<g>
			<g>
				<g>
					<polygon fill="#DF2C2C" points="189.873,279.982 180.864,247.157 186.653,241.37 176.94,231.638 167.292,241.287 
						173.141,247.136 164.127,279.982 					"/>
				</g>
			</g>
		</g>
		<g>
			<g>
				<g>
					<polygon fill="#FA5655" points="177,279.982 177,231.698 176.94,231.638 167.292,241.287 173.141,247.136 164.127,279.982 
											"/>
				</g>
			</g>
		</g>
		<g>
			<g>
				<g>
					<polygon fill="#FFFFFF" points="138.495,219.025 138.382,218.836 144.818,215.618 176.951,231.648 158.309,250.396 					"/>
				</g>
			</g>
		</g>
		<g>
			<g>
				<g>
					<path fill="#3E3E3F" d="M74.018,279.982l12.873-35.4c1.98-4.29,5.464-7.705,9.792-9.599l41.699-16.147L177,279.982H74.018z"/>
				</g>
			</g>
		</g>
		<g>
			<g>
				<g>
					<path fill="#3E3E3F" d="M279.982,279.982l-12.873-35.4c-1.98-4.29-5.464-7.705-9.792-9.599l-41.699-16.147L177,279.982H279.982
						z"/>
				</g>
			</g>
		</g>
		<g>
			<g>
				<g>
					<polygon fill="#9E9FA0" points="177,279.982 138.382,218.836 109.418,228.491 164.127,279.982 					"/>
				</g>
			</g>
		</g>
		<g>
			<g>
				<g>
					<polygon fill="#9E9FA0" points="177,279.982 215.618,218.836 244.582,228.491 189.873,279.982 					"/>
				</g>
			</g>
		</g>
	</g>
</g>
</svg>
